<svg width="45" height="51" viewBox="0 0 45 51" fill="none" xmlns="http://www.w3.org/2000/svg">
<path d="M39.3589 14.7172C39.7258 14.9372 39.9503 15.3328 39.9503 15.7597V34.4194C39.9503 34.8462 39.7258 35.2418 39.3589 35.4618L22.8236 45.3744C22.4366 45.6064 21.9527 45.6064 21.5657 45.3744L5.70325 35.8654C5.31086 35.6301 5.21336 35.1057 5.49514 34.7459L10.046 28.9355C10.5139 28.3382 11.3595 28.1916 12.0021 28.5963L17.0417 31.7711C18.3247 32.5793 20.0127 32.2886 20.9497 31.0979L29.2888 20.5013C29.7553 19.9084 30.5946 19.7615 31.2356 20.1601L34.9183 22.4505C35.2231 22.6401 35.6181 22.4216 35.6181 22.0635V18.0898C35.6181 17.8275 35.4824 17.5837 35.2591 17.4448L31.3305 15.0014C30.0485 14.204 28.3699 14.4981 27.437 15.6836L19.1075 26.2682C18.639 26.8636 17.7949 27.0089 17.1533 26.6048L12.1087 23.4268C10.8234 22.6171 9.13227 22.9104 8.19644 24.1053L1.06766 33.2069C0.3758 34.0901 -0.0814476 35.1994 0.210704 36.2815C0.497718 37.3446 1.10025 38.2716 2.15229 38.9023L19.908 49.5464C21.315 50.3899 23.0741 50.3899 24.4813 49.5464L42.2369 38.9023C43.5723 38.1018 44.3892 36.6614 44.3892 35.1073V15.0717C44.3892 13.5176 43.5723 12.0774 42.2369 11.2768L24.4813 0.632657C23.0741 -0.210886 21.315 -0.210886 19.908 0.632657L2.15229 11.2768C0.816872 12.0774 0 13.5176 0 15.0717V26.2361C0 26.6703 0.550994 26.8589 0.818646 26.5164L4.11694 22.2953C4.32561 22.0282 4.43892 21.6994 4.43892 21.3609V15.7597C4.43892 15.3328 4.66336 14.9372 5.03033 14.7172L21.5657 4.80462C21.9527 4.57263 22.4366 4.57263 22.8236 4.80462L39.3589 14.7172Z" fill="white"/>
<path d="M39.3589 14.7172C39.7258 14.9372 39.9503 15.3328 39.9503 15.7597V34.4194C39.9503 34.8462 39.7258 35.2418 39.3589 35.4618L22.8236 45.3744C22.4366 45.6064 21.9527 45.6064 21.5657 45.3744L5.70325 35.8654C5.31086 35.6301 5.21336 35.1057 5.49514 34.7459L10.046 28.9355C10.5139 28.3382 11.3595 28.1916 12.0021 28.5963L17.0417 31.7711C18.3247 32.5793 20.0127 32.2886 20.9497 31.0979L29.2888 20.5013C29.7553 19.9084 30.5946 19.7615 31.2356 20.1601L34.9183 22.4505C35.2231 22.6401 35.6181 22.4216 35.6181 22.0635V18.0898C35.6181 17.8275 35.4824 17.5837 35.2591 17.4448L31.3305 15.0014C30.0485 14.204 28.3699 14.4981 27.437 15.6836L19.1075 26.2682C18.639 26.8636 17.7949 27.0089 17.1533 26.6048L12.1087 23.4268C10.8234 22.6171 9.13227 22.9104 8.19644 24.1053L1.06766 33.2069C0.3758 34.0901 -0.0814476 35.1994 0.210704 36.2815C0.497718 37.3446 1.10025 38.2716 2.15229 38.9023L19.908 49.5464C21.315 50.3899 23.0741 50.3899 24.4813 49.5464L42.2369 38.9023C43.5723 38.1018 44.3892 36.6614 44.3892 35.1073V15.0717C44.3892 13.5176 43.5723 12.0774 42.2369 11.2768L24.4813 0.632657C23.0741 -0.210886 21.315 -0.210886 19.908 0.632657L2.15229 11.2768C0.816872 12.0774 0 13.5176 0 15.0717V26.2361C0 26.6703 0.550994 26.8589 0.818646 26.5164L4.11694 22.2953C4.32561 22.0282 4.43892 21.6994 4.43892 21.3609V15.7597C4.43892 15.3328 4.66336 14.9372 5.03033 14.7172L21.5657 4.80462C21.9527 4.57263 22.4366 4.57263 22.8236 4.80462L39.3589 14.7172Z" fill="url(#paint0_linear_92_519)"/>
<path d="M39.3589 14.7172C39.7258 14.9372 39.9503 15.3328 39.9503 15.7597V34.4194C39.9503 34.8462 39.7258 35.2418 39.3589 35.4618L22.8236 45.3744C22.4366 45.6064 21.9527 45.6064 21.5657 45.3744L5.70325 35.8654C5.31086 35.6301 5.21336 35.1057 5.49514 34.7459L10.046 28.9355C10.5139 28.3382 11.3595 28.1916 12.0021 28.5963L17.0417 31.7711C18.3247 32.5793 20.0127 32.2886 20.9497 31.0979L29.2888 20.5013C29.7553 19.9084 30.5946 19.7615 31.2356 20.1601L34.9183 22.4505C35.2231 22.6401 35.6181 22.4216 35.6181 22.0635V18.0898C35.6181 17.8275 35.4824 17.5837 35.2591 17.4448L31.3305 15.0014C30.0485 14.204 28.3699 14.4981 27.437 15.6836L19.1075 26.2682C18.639 26.8636 17.7949 27.0089 17.1533 26.6048L12.1087 23.4268C10.8234 22.6171 9.13227 22.9104 8.19644 24.1053L1.06766 33.2069C0.3758 34.0901 -0.0814476 35.1994 0.210704 36.2815C0.497718 37.3446 1.10025 38.2716 2.15229 38.9023L19.908 49.5464C21.315 50.3899 23.0741 50.3899 24.4813 49.5464L42.2369 38.9023C43.5723 38.1018 44.3892 36.6614 44.3892 35.1073V15.0717C44.3892 13.5176 43.5723 12.0774 42.2369 11.2768L24.4813 0.632657C23.0741 -0.210886 21.315 -0.210886 19.908 0.632657L2.15229 11.2768C0.816872 12.0774 0 13.5176 0 15.0717V26.2361C0 26.6703 0.550994 26.8589 0.818646 26.5164L4.11694 22.2953C4.32561 22.0282 4.43892 21.6994 4.43892 21.3609V15.7597C4.43892 15.3328 4.66336 14.9372 5.03033 14.7172L21.5657 4.80462C21.9527 4.57263 22.4366 4.57263 22.8236 4.80462L39.3589 14.7172Z" fill="url(#paint1_linear_92_519)"/>
<path d="M39.3589 14.7172C39.7258 14.9372 39.9503 15.3328 39.9503 15.7597V34.4194C39.9503 34.8462 39.7258 35.2418 39.3589 35.4618L22.8236 45.3744C22.4366 45.6064 21.9527 45.6064 21.5657 45.3744L5.70325 35.8654C5.31086 35.6301 5.21336 35.1057 5.49514 34.7459L10.046 28.9355C10.5139 28.3382 11.3595 28.1916 12.0021 28.5963L17.0417 31.7711C18.3247 32.5793 20.0127 32.2886 20.9497 31.0979L29.2888 20.5013C29.7553 19.9084 30.5946 19.7615 31.2356 20.1601L34.9183 22.4505C35.2231 22.6401 35.6181 22.4216 35.6181 22.0635V18.0898C35.6181 17.8275 35.4824 17.5837 35.2591 17.4448L31.3305 15.0014C30.0485 14.204 28.3699 14.4981 27.437 15.6836L19.1075 26.2682C18.639 26.8636 17.7949 27.0089 17.1533 26.6048L12.1087 23.4268C10.8234 22.6171 9.13227 22.9104 8.19644 24.1053L1.06766 33.2069C0.3758 34.0901 -0.0814476 35.1994 0.210704 36.2815C0.497718 37.3446 1.10025 38.2716 2.15229 38.9023L19.908 49.5464C21.315 50.3899 23.0741 50.3899 24.4813 49.5464L42.2369 38.9023C43.5723 38.1018 44.3892 36.6614 44.3892 35.1073V15.0717C44.3892 13.5176 43.5723 12.0774 42.2369 11.2768L24.4813 0.632657C23.0741 -0.210886 21.315 -0.210886 19.908 0.632657L2.15229 11.2768C0.816872 12.0774 0 13.5176 0 15.0717V26.2361C0 26.6703 0.550994 26.8589 0.818646 26.5164L4.11694 22.2953C4.32561 22.0282 4.43892 21.6994 4.43892 21.3609V15.7597C4.43892 15.3328 4.66336 14.9372 5.03033 14.7172L21.5657 4.80462C21.9527 4.57263 22.4366 4.57263 22.8236 4.80462L39.3589 14.7172Z" fill="url(#paint2_linear_92_519)"/>
<defs>
<linearGradient id="paint0_linear_92_519" x1="8.76203" y1="6.27238" x2="33.3835" y2="44.9659" gradientUnits="userSpaceOnUse">
<stop stop-color="#FFF50B"/>
<stop offset="1" stop-color="#EBFD21"/>
</linearGradient>
<linearGradient id="paint1_linear_92_519" x1="0.945998" y1="5.01792" x2="46.8379" y2="6.68008" gradientUnits="userSpaceOnUse">
<stop stop-color="#1238FF"/>
<stop offset="1" stop-color="#7635FF"/>
</linearGradient>
<linearGradient id="paint2_linear_92_519" x1="0" y1="0" x2="46.3633" y2="1.89561" gradientUnits="userSpaceOnUse">
<stop stop-color="#0047FF"/>
<stop offset="1" stop-color="#AC42FF"/>
</linearGradient>
</defs>
</svg>
