<svg width="47" height="54" viewBox="0 0 47 54" fill="none" xmlns="http://www.w3.org/2000/svg">
<path d="M41.3815 15.5866C41.7673 15.8196 42.0033 16.2385 42.0033 16.6907V36.4526C42.0033 36.9047 41.7673 37.3237 41.3815 37.5567L23.9965 48.0548C23.5896 48.3005 23.0808 48.3005 22.674 48.0548L5.99634 37.984C5.58378 37.7349 5.48128 37.1795 5.77754 36.7985L10.5623 30.6449C11.0542 30.0123 11.9433 29.857 12.6189 30.2856L17.9175 33.6479C19.2664 34.5039 21.0411 34.196 22.0263 32.935L30.794 21.7124C31.2844 21.0844 32.1669 20.9288 32.8407 21.351L36.7127 23.7767C37.0332 23.9775 37.4486 23.7461 37.4486 23.3668V19.1585C37.4486 18.8806 37.3059 18.6224 37.0711 18.4753L32.9406 15.8876C31.5927 15.0431 29.8278 15.3545 28.847 16.6101L20.0894 27.82C19.5968 28.4505 18.7094 28.6044 18.0348 28.1765L12.7309 24.8106C11.3797 23.9533 9.60158 24.2638 8.61765 25.5292L1.12253 35.1685C0.395112 36.104 -0.0856332 37.2787 0.221532 38.4247C0.523295 39.5506 1.15679 40.5325 2.2629 41.2003L20.931 52.4733C22.4104 53.3666 24.2599 53.3666 25.7394 52.4733L44.4075 41.2003C45.8114 40.3525 46.6703 38.8271 46.6703 37.1812V15.9621C46.6703 14.3162 45.8114 12.7908 44.4075 11.9429L25.7394 0.67003C24.2599 -0.223343 22.4104 -0.223343 20.931 0.67003L2.2629 11.9429C0.85885 12.7908 0 14.3162 0 15.9621V27.7859C0 28.2457 0.579309 28.4455 0.860716 28.0828L4.3285 23.6123C4.5479 23.3295 4.66703 22.9813 4.66703 22.6228V16.6907C4.66703 16.2385 4.90301 15.8196 5.28883 15.5866L22.674 5.08844C23.0808 4.84275 23.5896 4.84275 23.9965 5.08844L41.3815 15.5866Z" fill="url(#paint0_linear_85_1095)"/>
<defs>
<linearGradient id="paint0_linear_85_1095" x1="0.994612" y1="5.31435" x2="49.2458" y2="7.04928" gradientUnits="userSpaceOnUse">
<stop stop-color="#10A9FF"/>
<stop offset="1" stop-color="#1DFFF1"/>
</linearGradient>
</defs>
</svg>
