<svg width="40" height="47" viewBox="0 0 40 47" fill="none" xmlns="http://www.w3.org/2000/svg">
<path d="M19.3986 3.66881C19.7758 3.44373 20.2242 3.44373 20.6014 3.66881L35.8116 12.7452C36.2033 12.979 36.5 13.4531 36.5 14.0271V32.1798C36.5 32.7538 36.2033 33.2279 35.8116 33.4617L20.6014 42.5381C20.2242 42.7632 19.7758 42.7632 19.3986 42.5381L4.18845 33.4617C3.7967 33.2279 3.5 32.7538 3.5 32.1798V14.0271C3.5 13.4531 3.7967 12.979 4.18845 12.7452L19.3986 3.66881Z" fill="url(#paint0_linear_92_469)"/>
<path d="M19.3986 3.66881C19.7758 3.44373 20.2242 3.44373 20.6014 3.66881L35.8116 12.7452C36.2033 12.979 36.5 13.4531 36.5 14.0271V32.1798C36.5 32.7538 36.2033 33.2279 35.8116 33.4617L20.6014 42.5381C20.2242 42.7632 19.7758 42.7632 19.3986 42.5381L4.18845 33.4617C3.7967 33.2279 3.5 32.7538 3.5 32.1798V14.0271C3.5 13.4531 3.7967 12.979 4.18845 12.7452L19.3986 3.66881Z" fill="url(#paint1_linear_92_469)"/>
<path d="M19.3986 3.66881C19.7758 3.44373 20.2242 3.44373 20.6014 3.66881L35.8116 12.7452C36.2033 12.979 36.5 13.4531 36.5 14.0271V32.1798C36.5 32.7538 36.2033 33.2279 35.8116 33.4617L20.6014 42.5381C20.2242 42.7632 19.7758 42.7632 19.3986 42.5381L4.18845 33.4617C3.7967 33.2279 3.5 32.7538 3.5 32.1798V14.0271C3.5 13.4531 3.7967 12.979 4.18845 12.7452L19.3986 3.66881Z" stroke="url(#paint2_linear_92_469)" stroke-width="7"/>
<path d="M19.3986 3.66881C19.7758 3.44373 20.2242 3.44373 20.6014 3.66881L35.8116 12.7452C36.2033 12.979 36.5 13.4531 36.5 14.0271V32.1798C36.5 32.7538 36.2033 33.2279 35.8116 33.4617L20.6014 42.5381C20.2242 42.7632 19.7758 42.7632 19.3986 42.5381L4.18845 33.4617C3.7967 33.2279 3.5 32.7538 3.5 32.1798V14.0271C3.5 13.4531 3.7967 12.979 4.18845 12.7452L19.3986 3.66881Z" stroke="url(#paint3_linear_92_469)" stroke-width="7"/>
<defs>
<linearGradient id="paint0_linear_92_469" x1="0.852458" y1="4.62071" x2="42.2089" y2="6.08652" gradientUnits="userSpaceOnUse">
<stop stop-color="#1238FF"/>
<stop offset="1" stop-color="#7635FF"/>
</linearGradient>
<linearGradient id="paint1_linear_92_469" x1="0" y1="0" x2="41.7819" y2="1.67171" gradientUnits="userSpaceOnUse">
<stop stop-color="#0047FF"/>
<stop offset="1" stop-color="#AC42FF"/>
</linearGradient>
<linearGradient id="paint2_linear_92_469" x1="0.852458" y1="4.62071" x2="42.2089" y2="6.08652" gradientUnits="userSpaceOnUse">
<stop stop-color="#1238FF"/>
<stop offset="1" stop-color="#7635FF"/>
</linearGradient>
<linearGradient id="paint3_linear_92_469" x1="0" y1="0" x2="41.7819" y2="1.67171" gradientUnits="userSpaceOnUse">
<stop stop-color="#0047FF"/>
<stop offset="1" stop-color="#AC42FF"/>
</linearGradient>
</defs>
</svg>
