<svg width="30" height="20" viewBox="0 0 30 20" fill="none" xmlns="http://www.w3.org/2000/svg">
<path d="M15 1.5C10.7058 1.5 7.17289 1.65177 4.70304 1.80471C3.12271 1.90257 1.87559 3.13073 1.75138 4.72413C1.61699 6.44814 1.5 8.41153 1.5 10C1.5 11.5885 1.61699 13.5519 1.75138 15.2759C1.87559 16.8693 3.12271 18.0974 4.70303 18.1953C7.17289 18.3482 10.7058 18.5 15 18.5C19.2941 18.5 22.8271 18.3482 25.297 18.1953C26.8773 18.0974 28.1244 16.8693 28.2486 15.2759C28.383 13.5519 28.5 11.5885 28.5 10C28.5 8.41153 28.383 6.44814 28.2486 4.72413C28.1244 3.13073 26.8773 1.90257 25.297 1.80471C22.8271 1.65177 19.2942 1.5 15 1.5ZM1.2529 4.68527C1.39623 2.84662 2.83979 1.41914 4.67213 1.30567C7.15085 1.15217 10.6942 1 15 1C19.3058 1 22.8492 1.15217 25.3279 1.30567C27.1602 1.41914 28.6038 2.84662 28.7471 4.68527C28.8818 6.41309 29 8.39184 29 10C29 11.6082 28.8818 13.5869 28.7471 15.3147C28.6038 17.1534 27.1602 18.5809 25.3279 18.6943C22.8492 18.8478 19.3058 19 15 19C10.6942 19 7.15085 18.8478 4.67213 18.6943C2.83979 18.5809 1.39623 17.1534 1.2529 15.3147C1.11821 13.5869 1 11.6082 1 10C1 8.39184 1.11821 6.41309 1.2529 4.68527Z" fill="white"/>
<path d="M15 1.5C10.7058 1.5 7.17289 1.65177 4.70304 1.80471C3.12271 1.90257 1.87559 3.13073 1.75138 4.72413C1.61699 6.44814 1.5 8.41153 1.5 10C1.5 11.5885 1.61699 13.5519 1.75138 15.2759C1.87559 16.8693 3.12271 18.0974 4.70303 18.1953C7.17289 18.3482 10.7058 18.5 15 18.5C19.2941 18.5 22.8271 18.3482 25.297 18.1953C26.8773 18.0974 28.1244 16.8693 28.2486 15.2759C28.383 13.5519 28.5 11.5885 28.5 10C28.5 8.41153 28.383 6.44814 28.2486 4.72413C28.1244 3.13073 26.8773 1.90257 25.297 1.80471C22.8271 1.65177 19.2942 1.5 15 1.5ZM1.2529 4.68527C1.39623 2.84662 2.83979 1.41914 4.67213 1.30567C7.15085 1.15217 10.6942 1 15 1C19.3058 1 22.8492 1.15217 25.3279 1.30567C27.1602 1.41914 28.6038 2.84662 28.7471 4.68527C28.8818 6.41309 29 8.39184 29 10C29 11.6082 28.8818 13.5869 28.7471 15.3147C28.6038 17.1534 27.1602 18.5809 25.3279 18.6943C22.8492 18.8478 19.3058 19 15 19C10.6942 19 7.15085 18.8478 4.67213 18.6943C2.83979 18.5809 1.39623 17.1534 1.2529 15.3147C1.11821 13.5869 1 11.6082 1 10C1 8.39184 1.11821 6.41309 1.2529 4.68527Z" stroke="url(#paint0_linear_92_655)" stroke-width="2"/>
<path d="M15 1.5C10.7058 1.5 7.17289 1.65177 4.70304 1.80471C3.12271 1.90257 1.87559 3.13073 1.75138 4.72413C1.61699 6.44814 1.5 8.41153 1.5 10C1.5 11.5885 1.61699 13.5519 1.75138 15.2759C1.87559 16.8693 3.12271 18.0974 4.70303 18.1953C7.17289 18.3482 10.7058 18.5 15 18.5C19.2941 18.5 22.8271 18.3482 25.297 18.1953C26.8773 18.0974 28.1244 16.8693 28.2486 15.2759C28.383 13.5519 28.5 11.5885 28.5 10C28.5 8.41153 28.383 6.44814 28.2486 4.72413C28.1244 3.13073 26.8773 1.90257 25.297 1.80471C22.8271 1.65177 19.2942 1.5 15 1.5ZM1.2529 4.68527C1.39623 2.84662 2.83979 1.41914 4.67213 1.30567C7.15085 1.15217 10.6942 1 15 1C19.3058 1 22.8492 1.15217 25.3279 1.30567C27.1602 1.41914 28.6038 2.84662 28.7471 4.68527C28.8818 6.41309 29 8.39184 29 10C29 11.6082 28.8818 13.5869 28.7471 15.3147C28.6038 17.1534 27.1602 18.5809 25.3279 18.6943C22.8492 18.8478 19.3058 19 15 19C10.6942 19 7.15085 18.8478 4.67213 18.6943C2.83979 18.5809 1.39623 17.1534 1.2529 15.3147C1.11821 13.5869 1 11.6082 1 10C1 8.39184 1.11821 6.41309 1.2529 4.68527Z" stroke="url(#paint1_linear_92_655)" stroke-width="2"/>
<path d="M14.441 6.29798L18.4375 8.96233C19.1797 9.45711 19.1797 10.5477 18.4375 11.0425L14.441 13.7068C13.6103 14.2606 12.4976 13.6651 12.4976 12.6667L12.4976 7.33804C12.4976 6.33967 13.6103 5.74418 14.441 6.29798Z" fill="url(#paint2_linear_92_655)"/>
<path d="M14.441 6.29798L18.4375 8.96233C19.1797 9.45711 19.1797 10.5477 18.4375 11.0425L14.441 13.7068C13.6103 14.2606 12.4976 13.6651 12.4976 12.6667L12.4976 7.33804C12.4976 6.33967 13.6103 5.74418 14.441 6.29798Z" fill="url(#paint3_linear_92_655)"/>
<path d="M14.441 6.29798L18.4375 8.96233C19.1797 9.45711 19.1797 10.5477 18.4375 11.0425L14.441 13.7068C13.6103 14.2606 12.4976 13.6651 12.4976 12.6667L12.4976 7.33804C12.4976 6.33967 13.6103 5.74418 14.441 6.29798Z" stroke="url(#paint4_linear_92_655)"/>
<path d="M14.441 6.29798L18.4375 8.96233C19.1797 9.45711 19.1797 10.5477 18.4375 11.0425L14.441 13.7068C13.6103 14.2606 12.4976 13.6651 12.4976 12.6667L12.4976 7.33804C12.4976 6.33967 13.6103 5.74418 14.441 6.29798Z" stroke="url(#paint5_linear_92_655)"/>
<defs>
<linearGradient id="paint0_linear_92_655" x1="0.639344" y1="2.00001" x2="31.5789" y2="3.90016" gradientUnits="userSpaceOnUse">
<stop stop-color="#1238FF"/>
<stop offset="1" stop-color="#7635FF"/>
</linearGradient>
<linearGradient id="paint1_linear_92_655" x1="0" y1="0" x2="31.2364" y2="2.16558" gradientUnits="userSpaceOnUse">
<stop stop-color="#0047FF"/>
<stop offset="1" stop-color="#AC42FF"/>
</linearGradient>
<linearGradient id="paint2_linear_92_655" x1="18.3445" y1="6.25287" x2="17.9452" y2="14.3419" gradientUnits="userSpaceOnUse">
<stop stop-color="#1238FF"/>
<stop offset="1" stop-color="#7635FF"/>
</linearGradient>
<linearGradient id="paint3_linear_92_655" x1="18.9941" y1="6.08594" x2="18.5389" y2="14.2555" gradientUnits="userSpaceOnUse">
<stop stop-color="#0047FF"/>
<stop offset="1" stop-color="#AC42FF"/>
</linearGradient>
<linearGradient id="paint4_linear_92_655" x1="18.3445" y1="6.25287" x2="17.9452" y2="14.3419" gradientUnits="userSpaceOnUse">
<stop stop-color="#1238FF"/>
<stop offset="1" stop-color="#7635FF"/>
</linearGradient>
<linearGradient id="paint5_linear_92_655" x1="18.9941" y1="6.08594" x2="18.5389" y2="14.2555" gradientUnits="userSpaceOnUse">
<stop stop-color="#0047FF"/>
<stop offset="1" stop-color="#AC42FF"/>
</linearGradient>
</defs>
</svg>
