<svg width="35" height="30" viewBox="0 0 35 30" fill="none" xmlns="http://www.w3.org/2000/svg">
<path d="M17.5002 7.96771L19.1609 6.30127C21.9224 3.53015 26.204 3.44587 29.0595 6.10642V6.10642C32.273 9.10057 32.4398 14.3712 29.4229 17.5898L26.055 21.1828L18.7676 27.9368C18.0402 28.611 16.9585 28.6112 16.2309 27.9372L13.4617 25.3723" stroke="url(#paint0_linear_92_662)" stroke-width="2" stroke-linecap="round"/>
<path d="M17.5002 7.96771L19.1609 6.30127C21.9224 3.53015 26.204 3.44587 29.0595 6.10642V6.10642C32.273 9.10057 32.4398 14.3712 29.4229 17.5898L26.055 21.1828L18.7676 27.9368C18.0402 28.611 16.9585 28.6112 16.2309 27.9372L13.4617 25.3723" stroke="url(#paint1_linear_92_662)" stroke-width="2" stroke-linecap="round"/>
<path d="M17.4985 7.96735L15.8384 6.30132C13.0769 3.52998 8.79532 3.44557 5.93979 6.10616V6.10616C2.72634 9.10024 2.55955 14.3707 5.57639 17.5892L8.94444 21.1824L16.2306 27.9364C16.9579 28.6106 18.0395 28.6109 18.7671 27.9371L21.5375 25.3719" stroke="url(#paint2_linear_92_662)" stroke-width="2" stroke-linecap="round"/>
<path d="M17.4985 7.96735L15.8384 6.30132C13.0769 3.52998 8.79532 3.44557 5.93979 6.10616V6.10616C2.72634 9.10024 2.55955 14.3707 5.57639 17.5892L8.94444 21.1824L16.2306 27.9364C16.9579 28.6106 18.0395 28.6109 18.7671 27.9371L21.5375 25.3719" stroke="url(#paint3_linear_92_662)" stroke-width="2" stroke-linecap="round"/>
<defs>
<linearGradient id="paint0_linear_92_662" x1="23.031" y1="2.54325" x2="34.3129" y2="13.6586" gradientUnits="userSpaceOnUse">
<stop stop-color="#1238FF"/>
<stop offset="1" stop-color="#7635FF"/>
</linearGradient>
<linearGradient id="paint1_linear_92_662" x1="24.5283" y1="0.469727" x2="35.8954" y2="11.7413" gradientUnits="userSpaceOnUse">
<stop stop-color="#0047FF"/>
<stop offset="1" stop-color="#AC42FF"/>
</linearGradient>
<linearGradient id="paint2_linear_92_662" x1="11.968" y1="2.54324" x2="0.686512" y2="13.6582" gradientUnits="userSpaceOnUse">
<stop stop-color="#1238FF"/>
<stop offset="1" stop-color="#7635FF"/>
</linearGradient>
<linearGradient id="paint3_linear_92_662" x1="10.4707" y1="0.469727" x2="-0.895995" y2="11.7408" gradientUnits="userSpaceOnUse">
<stop stop-color="#0047FF"/>
<stop offset="1" stop-color="#AC42FF"/>
</linearGradient>
</defs>
</svg>
