<svg width="35" height="35" viewBox="0 0 35 35" fill="none" xmlns="http://www.w3.org/2000/svg">
<path fill-rule="evenodd" clip-rule="evenodd" d="M17.5 3.5C9.76801 3.5 3.5 9.76801 3.5 17.5C3.5 25.232 9.76801 31.5 17.5 31.5C25.232 31.5 31.5 25.232 31.5 17.5C31.5 9.76801 25.232 3.5 17.5 3.5ZM0 17.5C0 7.83502 7.83502 0 17.5 0C27.165 0 35 7.83502 35 17.5C35 27.165 27.165 35 17.5 35C7.83502 35 0 27.165 0 17.5Z" fill="white"/>
<path d="M27.9988 16.6249C27.5752 11.5204 23.4793 7.42445 18.3747 7.00083C17.8931 6.96087 17.5 7.35643 17.5 7.83968V16.6246C17.5 17.1079 17.8918 17.4996 18.375 17.4996H27.16C27.6433 17.4996 28.0388 17.1065 27.9988 16.6249Z" fill="white"/>
</svg>
