<svg width="31" height="30" viewBox="0 0 31 30" fill="none" xmlns="http://www.w3.org/2000/svg">
<path d="M14.3111 1.81994C14.6777 1.07605 15.7384 1.07605 16.105 1.81994L19.6817 9.07703C19.8274 9.37259 20.1093 9.57742 20.4354 9.62463L28.3811 10.7749C29.2004 10.8935 29.529 11.8993 28.9378 12.4788L23.1683 18.133C22.9342 18.3625 22.8274 18.6922 22.8825 19.0154L24.244 26.9969C24.3836 27.8149 23.5234 28.4372 22.7901 28.0487L15.6762 24.2796C15.3834 24.1245 15.0327 24.1245 14.7399 24.2796L7.62596 28.0487C6.89264 28.4372 6.03249 27.8149 6.17204 26.9969L7.53331 19.0168C7.58858 18.6928 7.48111 18.3624 7.24584 18.1329L1.45153 12.4804C0.85803 11.9014 1.18639 10.8932 2.00701 10.7748L9.9803 9.62443C10.3066 9.57735 10.5887 9.37247 10.7345 9.07676L14.3111 1.81994Z" stroke="url(#paint0_linear_92_644)" stroke-width="2" stroke-miterlimit="10"/>
<path d="M14.3111 1.81994C14.6777 1.07605 15.7384 1.07605 16.105 1.81994L19.6817 9.07703C19.8274 9.37259 20.1093 9.57742 20.4354 9.62463L28.3811 10.7749C29.2004 10.8935 29.529 11.8993 28.9378 12.4788L23.1683 18.133C22.9342 18.3625 22.8274 18.6922 22.8825 19.0154L24.244 26.9969C24.3836 27.8149 23.5234 28.4372 22.7901 28.0487L15.6762 24.2796C15.3834 24.1245 15.0327 24.1245 14.7399 24.2796L7.62596 28.0487C6.89264 28.4372 6.03249 27.8149 6.17204 26.9969L7.53331 19.0168C7.58858 18.6928 7.48111 18.3624 7.24584 18.1329L1.45153 12.4804C0.85803 11.9014 1.18639 10.8932 2.00701 10.7748L9.9803 9.62443C10.3066 9.57735 10.5887 9.37247 10.7345 9.07676L14.3111 1.81994Z" stroke="url(#paint1_linear_92_644)" stroke-width="2" stroke-miterlimit="10"/>
<defs>
<linearGradient id="paint0_linear_92_644" x1="0.647462" y1="2.90001" x2="32.0404" y2="4.24654" gradientUnits="userSpaceOnUse">
<stop stop-color="#1238FF"/>
<stop offset="1" stop-color="#7635FF"/>
</linearGradient>
<linearGradient id="paint1_linear_92_644" x1="0" y1="0" x2="31.7108" y2="1.53543" gradientUnits="userSpaceOnUse">
<stop stop-color="#0047FF"/>
<stop offset="1" stop-color="#AC42FF"/>
</linearGradient>
</defs>
</svg>
