<svg width="42" height="42" viewBox="0 0 42 42" fill="none" xmlns="http://www.w3.org/2000/svg">
<path d="M7 36.75C7 35.7835 7.7835 35 8.75 35H33.25C34.2165 35 35 35.7835 35 36.75C35 37.7165 34.2165 38.5 33.25 38.5H8.75C7.7835 38.5 7 37.7165 7 36.75Z" fill="white"/>
<path fill-rule="evenodd" clip-rule="evenodd" d="M21.7204 5.55512C24.4541 2.82146 28.8863 2.82147 31.6199 5.55513L32.9453 6.8805C35.679 9.61418 35.679 14.0463 32.9453 16.78L20.8596 28.8656C20.3741 29.3511 19.7565 29.6831 19.0838 29.8202L11.2025 31.4266C8.74453 31.9276 6.57307 29.7562 7.07398 27.2982L8.68015 19.4167C8.81726 18.7439 9.14925 18.1262 9.63479 17.6407L21.7204 5.55512ZM29.1451 8.03001C27.7782 6.66318 25.5621 6.66317 24.1953 8.03L23.4749 8.75038L29.7501 15.0255L30.4704 14.3051C31.8373 12.9383 31.8373 10.7222 30.4704 9.35538L29.1451 8.03001ZM14.7249 17.5004L21.0001 11.2252L27.2752 17.5004L21 23.7755L14.7249 17.5004ZM12.25 19.9752L12.1097 20.1156L10.5035 27.9971L18.3848 26.3907L18.5252 26.2503L12.25 19.9752Z" fill="white"/>
</svg>
