<svg width="35" height="35" viewBox="0 0 35 35" fill="none" xmlns="http://www.w3.org/2000/svg">
<path fill-rule="evenodd" clip-rule="evenodd" d="M17.5 31.5C25.232 31.5 31.5 25.232 31.5 17.5C31.5 9.76801 25.232 3.5 17.5 3.5C9.76801 3.5 3.5 9.76801 3.5 17.5C3.5 25.232 9.76801 31.5 17.5 31.5ZM17.5 35C27.165 35 35 27.165 35 17.5C35 7.83502 27.165 0 17.5 0C7.83502 0 0 7.83502 0 17.5C0 27.165 7.83502 35 17.5 35Z" fill="white"/>
<path fill-rule="evenodd" clip-rule="evenodd" d="M17.5 7C16.5335 7 15.75 7.7835 15.75 8.75L14 8.75C12.067 8.75 10.5 10.317 10.5 12.25V15.75V17.5V19.25V22.75C10.5 24.683 12.067 26.25 14 26.25H15.75C15.75 27.2165 16.5335 28 17.5 28C18.4665 28 19.25 27.2165 19.25 26.25C22.1495 26.25 24.5 23.8995 24.5 21C24.5 19.6554 23.9945 18.4288 23.1632 17.5C23.9945 16.5712 24.5 15.3446 24.5 14C24.5 11.1005 22.1495 8.75 19.25 8.75C19.25 7.7835 18.4665 7 17.5 7ZM17.5 22.75H19.25C20.2165 22.75 21 21.9665 21 21C21 20.0335 20.2165 19.25 19.25 19.25H14V22.75H17.5ZM14 15.75H19.25C20.2165 15.75 21 14.9665 21 14C21 13.0335 20.2165 12.25 19.25 12.25H17.5H14V15.75Z" fill="white"/>
</svg>
