<svg width="28" height="24" viewBox="0 0 28 24" fill="none" xmlns="http://www.w3.org/2000/svg">
<path d="M2.26149 8.56402L1.86244 9.19905L1.86254 9.19911L1.86286 9.19931L1.86401 9.20003L1.86834 9.20275L1.88491 9.21313L1.94832 9.25276C2.00351 9.28718 2.08384 9.33714 2.18505 9.39969C2.38741 9.52477 2.67349 9.70036 3.00904 9.90282C3.67245 10.3031 4.53593 10.8125 5.32999 11.2446C6.20849 11.7963 6.98936 11.97 7.58094 11.9895C7.87607 11.9992 8.11754 11.9703 8.29382 11.9356C8.38192 11.9183 8.4538 11.8995 8.50813 11.8832C8.53531 11.8751 8.55813 11.8676 8.57643 11.8613L8.6005 11.8527L8.60997 11.8491L8.61406 11.8475L8.61595 11.8468L8.61685 11.8465C8.61729 11.8463 8.61772 11.8461 8.34325 11.1481M2.26149 8.56402C1.69388 9.05424 1.69355 9.05386 1.69322 9.05347L1.69253 9.05267L1.69106 9.05095L1.6878 9.04712L1.68004 9.03783C1.67434 9.03092 1.66758 9.02257 1.65992 9.01282C1.64466 8.99339 1.62561 8.96813 1.60426 8.93757C1.56206 8.87719 1.50815 8.79223 1.45647 8.6873C1.35763 8.48661 1.23984 8.15718 1.28986 7.76533C1.40517 6.86221 2.25193 6.30683 3.61358 6.04218L3.61836 6.04121L3.64168 6.03648L3.73303 6.01795L4.08319 5.94691L5.36172 5.68742C6.43614 5.46928 7.90815 5.17029 9.49848 4.84685C12.6725 4.20132 16.3162 3.45872 18.2121 3.06701C18.9581 2.8857 20.5311 2.55673 21.9053 2.27532C22.5999 2.13308 23.2491 2.00193 23.7245 1.90635C23.9623 1.85855 24.1566 1.81963 24.2916 1.79266L24.4475 1.76153L24.4883 1.7534L24.4988 1.75132L24.4989 1.75132L24.4996 1.75117L24.5011 1.75086L24.5014 1.75079L24.5021 1.75066L24.5023 1.75062L24.5049 1.75011L24.5149 1.74817L24.5445 1.74278C24.5684 1.73862 24.6004 1.73341 24.6394 1.72798C24.717 1.71717 24.8243 1.70515 24.9505 1.69907C25.1928 1.68739 25.5505 1.69507 25.91 1.80682C26.2788 1.92145 26.7042 2.16561 26.9516 2.65606C27.1905 3.12968 27.1942 3.69732 27.0308 4.31847C26.9202 4.8298 26.5828 5.79704 26.1575 6.96281C25.9343 7.57465 25.6758 8.27056 25.3994 9.01418C25.1357 9.72395 24.8558 10.4772 24.5751 11.2423L24.572 11.2507L24.572 11.2507C23.7406 13.4358 22.8893 15.7158 22.2456 17.4501C21.9238 18.317 21.654 19.0474 21.4647 19.5609C21.37 19.8177 21.2955 20.0202 21.2446 20.1585L21.1865 20.3166L21.1723 20.3554L21.1708 20.3599C21.1658 20.3754 21.1589 20.3959 21.1501 20.4208C21.1326 20.4703 21.1073 20.5377 21.0737 20.6173C21.0073 20.7745 20.9041 20.9894 20.7575 21.2112C20.4817 21.6287 19.9442 22.2268 19.0812 22.2705C18.649 22.2924 18.2367 22.1517 17.9028 21.9889C17.5591 21.8214 17.2325 21.5978 16.9519 21.3765C16.669 21.1534 16.4164 20.9196 16.22 20.7193C16.0775 20.5738 15.9374 20.4187 15.8386 20.2853C15.7828 20.2321 15.7168 20.1663 15.6527 20.102C15.5313 19.9801 15.3699 19.8157 15.18 19.6203C14.7998 19.229 14.3004 18.7083 13.7675 18.1438C12.7078 17.0214 11.4939 15.7032 10.828 14.8882L10.797 14.8503L10.7712 14.8087C10.6007 14.5335 10.3628 14.0559 10.3777 13.4982C10.3944 12.8739 10.7225 12.2947 11.4099 11.889C11.9903 11.5142 12.5971 11.1269 13.2087 10.7365C14.6606 9.80977 16.1388 8.86617 17.3521 8.03468L11.5651 10.5603L9.44675 11.4849L8.85325 11.7439L8.69689 11.8121L8.6568 11.8296L8.64665 11.834L8.6441 11.8352L8.64346 11.8354L8.6433 11.8355L8.34325 11.1481M2.26149 8.56402L1.69388 9.05424L1.7673 9.13925L1.86239 9.19901L2.26149 8.56402ZM8.34325 11.1481L8.61772 11.8461L8.63058 11.8411L8.64325 11.8355L8.34325 11.1481ZM19.2124 6.53958C19.2126 6.53952 19.2114 6.54274 19.208 6.54951C19.2104 6.54304 19.2122 6.53965 19.2124 6.53958Z" stroke="white" stroke-width="1.5"/>
</svg>
