<svg width="47" height="35" viewBox="0 0 47 35" fill="none" xmlns="http://www.w3.org/2000/svg">
<path d="M18.2824 1.13925C10.1596 4.79432 9.41547 14.155 7.08633 18.5267C4.72961 22.9502 -0.669566 25.3909 0.0687602 27.6453C0.807057 29.8993 6.21266 27.4782 10.4893 28.9166C14.7152 30.3379 20.6116 36.7112 28.7344 33.0559C32.8723 31.1943 35.8687 27.3619 37.2465 22.8224C37.3946 22.3352 37.1177 21.8141 36.678 21.7659C36.405 21.7359 36.1426 21.9036 36.0195 22.1908C34.7731 25.1006 32.635 27.497 29.837 28.7558C25.2178 30.8341 20.1636 29.2024 17.0598 25.1096C16.3548 24.1803 15.7518 23.1224 15.2759 21.9532C15.145 21.6313 15.0205 21.3043 14.9102 20.9659C14.7992 20.6275 14.7049 20.2869 14.6184 19.9448C17.0598 18.6109 19.877 17.198 23.071 15.7611C26.2024 14.352 29.0526 13.2091 31.59 12.2947C33.3066 11.6767 34.8802 11.1624 36.3009 10.742C36.4038 10.712 36.5049 10.6819 36.6058 10.6525C36.8205 10.5901 37.0412 10.7247 37.1207 10.9668L37.1222 10.9714C37.1689 11.115 37.2093 11.2593 37.253 11.4037C37.5338 12.3354 37.7444 13.2767 37.8834 14.2204C37.9443 14.6332 38.3292 14.8581 38.6449 14.6595C39.8112 13.9257 40.8779 13.2098 41.831 12.5211C45.3829 9.95702 47.3521 7.78248 46.9479 6.55006C46.5445 5.31691 43.84 5.24624 39.7365 6.12599C38.4325 6.40571 36.9868 6.78165 35.4287 7.24711C35.1592 7.32754 34.8864 7.41102 34.6107 7.49672C33.2995 7.90427 31.9166 8.37123 30.4766 8.89382C27.7986 9.86604 24.9254 11.0308 21.9591 12.3654C19.1843 13.6144 16.5543 14.9092 14.1424 16.1995C14.1129 10.7232 16.9372 5.54624 21.5563 3.46793C24.3537 2.20922 27.311 2.31226 29.8986 3.49801C30.1538 3.61531 30.4445 3.53412 30.6313 3.29725C30.9299 2.91753 30.8383 2.31299 30.4501 2.06636C26.8351 -0.224747 22.4205 -0.722507 18.2824 1.13925Z" fill="white"/>
</svg>
