<svg width="30" height="34" viewBox="0 0 30 34" fill="none" xmlns="http://www.w3.org/2000/svg">
<path fill-rule="evenodd" clip-rule="evenodd" d="M14.2092 3.1577H9.15704C7.80467 3.1577 6.88535 3.15893 6.17475 3.21698C5.48258 3.27354 5.1286 3.37604 4.88168 3.50186C4.28754 3.80459 3.80449 4.28764 3.50176 4.88178C3.37594 5.1287 3.27344 5.48267 3.21689 6.17484C3.15883 6.88544 3.1576 7.80477 3.1576 9.15714V22.419C3.1576 23.7714 3.15883 24.6907 3.21689 25.4013C3.27344 26.0935 3.37594 26.4475 3.50176 26.6944C3.80449 27.2886 4.28754 27.7716 4.88168 28.0743C5.1286 28.2001 5.48258 28.3026 6.17475 28.3592C6.88535 28.4173 7.80467 28.4185 9.15704 28.4185H14.2092C15.0811 28.4185 15.788 29.1253 15.788 29.9973C15.788 30.8692 15.0811 31.5761 14.2092 31.5761H9.0918C7.82093 31.5761 6.77205 31.5761 5.91762 31.5063C5.03018 31.4338 4.21441 31.2782 3.44816 30.8878C2.25988 30.2823 1.29378 29.3162 0.688317 28.1279C0.297895 27.3617 0.142282 26.5459 0.0697749 25.6585C-3.49831e-05 24.804 -1.88701e-05 23.7552 6.4991e-07 22.4843V9.09193C-1.88701e-05 7.82106 -3.49772e-05 6.77215 0.0697749 5.91771C0.142282 5.03028 0.297895 4.2145 0.688317 3.44826C1.29378 2.25998 2.25988 1.29387 3.44816 0.688415C4.21441 0.297992 5.03018 0.142379 5.91762 0.0698724C6.77206 6.2132e-05 7.82095 7.86951e-05 9.09184 9.88333e-05L14.3886 4.877e-05C15.3912 -0.000428148 16.1487 -0.000788754 16.8792 0.174589C17.5235 0.329291 18.1396 0.584452 18.7046 0.930706C19.3451 1.32324 19.8805 1.85912 20.5891 2.56836L22.6925 4.6718C23.4018 5.38036 23.9377 5.91574 24.3302 6.55629C24.6764 7.12133 24.9316 7.73734 25.0863 8.38172C25.2617 9.11222 25.2613 9.8697 25.2608 10.8722L25.2608 15.7881C25.2608 16.66 24.5539 17.3669 23.682 17.3669C22.81 17.3669 22.1032 16.66 22.1032 15.7881V11.0517H18.9456C16.3298 11.0517 14.2092 8.93113 14.2092 6.31529V3.1577ZM21.4085 7.89409C21.2188 7.66974 20.9158 7.36062 20.346 6.79086L18.47 4.91489C17.9003 4.34513 17.5912 4.04214 17.3668 3.85241V6.31529C17.3668 7.18724 18.0736 7.89409 18.9456 7.89409H21.4085Z" fill="url(#paint0_linear_85_1157)"/>
<path d="M22.953 21.0136C23.2227 20.3653 24.1411 20.3653 24.4107 21.0136L25.657 24.01C25.77 24.2817 26.0246 24.4679 26.3177 24.4933L29.2772 24.7499C29.9549 24.8087 30.2459 25.6399 29.7529 26.1085L27.5047 28.2454C27.3007 28.4393 27.2154 28.7271 27.2806 29.0008L28.0392 32.1809C28.2022 32.8639 27.4591 33.4038 26.8599 33.0378L24.0933 31.348C23.8407 31.1937 23.523 31.1937 23.2704 31.348L20.5038 33.0378C19.9046 33.4038 19.1616 32.8639 19.3245 32.1809L20.0833 28.9998C20.1485 28.7266 20.0636 28.4394 19.8604 28.2455L17.6198 26.1075C17.1283 25.6384 17.4195 24.8088 18.0964 24.7499L21.0462 24.4934C21.3392 24.468 21.5937 24.2817 21.7067 24.0102L22.953 21.0136Z" fill="url(#paint1_linear_85_1157)"/>
<defs>
<linearGradient id="paint0_linear_85_1157" x1="0.538346" y1="3.15762" x2="26.6606" y2="4.01324" gradientUnits="userSpaceOnUse">
<stop stop-color="#10A9FF"/>
<stop offset="1" stop-color="#1DFFF1"/>
</linearGradient>
<linearGradient id="paint1_linear_85_1157" x1="17.6433" y1="21.7902" x2="30.6913" y2="22.3243" gradientUnits="userSpaceOnUse">
<stop stop-color="#10A9FF"/>
<stop offset="1" stop-color="#1DFFF1"/>
</linearGradient>
</defs>
</svg>
