<svg width="30" height="38" viewBox="0 0 30 38" fill="none" xmlns="http://www.w3.org/2000/svg">
<path fill-rule="evenodd" clip-rule="evenodd" d="M7.49951 7.49995C7.49951 3.35784 10.8574 0 14.9995 0C19.1416 0 22.4994 3.35784 22.4994 7.49995V16.8749H18.7494V7.49995C18.7494 5.4289 17.0705 3.74998 14.9995 3.74998C12.9284 3.74998 11.2495 5.4289 11.2495 7.49995V16.8749H7.49951V7.49995Z" fill="url(#paint0_linear_85_1153)"/>
<path fill-rule="evenodd" clip-rule="evenodd" d="M10.7975 13.125H19.2023C20.7116 13.125 21.9573 13.125 22.972 13.2079C24.026 13.294 24.9948 13.4788 25.9048 13.9424C27.316 14.6615 28.4633 15.8088 29.1824 17.22C29.646 18.13 29.8308 19.0989 29.917 20.1528C29.9999 21.1675 29.9998 22.4132 29.9998 23.9225V26.7023C29.9998 28.2116 29.9999 29.4573 29.917 30.4721C29.8308 31.526 29.646 32.4948 29.1824 33.4048C28.4633 34.816 27.316 35.9634 25.9048 36.6824C24.9948 37.1461 24.026 37.3309 22.972 37.417C21.9573 37.4999 20.7116 37.4999 19.2023 37.4998H10.7975C9.28821 37.4999 8.04253 37.4999 7.02778 37.417C5.97386 37.3309 5.00505 37.1461 4.09505 36.6824C2.68384 35.9634 1.53649 34.816 0.817448 33.4048C0.35378 32.4948 0.168973 31.526 0.0828642 30.4721C-4.27754e-05 29.4573 -2.31076e-05 28.2117 8.08667e-07 26.7024V23.9225C-2.31076e-05 22.4132 -4.27754e-05 21.1675 0.0828642 20.1528C0.168973 19.0989 0.35378 18.13 0.817448 17.22C1.53649 15.8088 2.68384 14.6615 4.09505 13.9424C5.00505 13.4788 5.97386 13.294 7.02778 13.2079C8.04252 13.125 9.28819 13.125 10.7975 13.125ZM7.33315 16.9454C6.51113 17.0125 6.09075 17.1343 5.7975 17.2837C5.0919 17.6432 4.51822 18.2169 4.1587 18.9225C4.00928 19.2157 3.88755 19.6361 3.82039 20.4582C3.75144 21.3021 3.74998 22.3939 3.74998 23.9999V26.6249C3.74998 28.231 3.75144 29.3228 3.82039 30.1667C3.88755 30.9887 4.00928 31.4091 4.1587 31.7024C4.51822 32.408 5.0919 32.9816 5.7975 33.3412C6.09075 33.4906 6.51113 33.6123 7.33315 33.6795C8.17706 33.7484 9.26886 33.7499 10.8749 33.7499H19.1249C20.731 33.7499 21.8228 33.7484 22.6667 33.6795C23.4887 33.6123 23.9091 33.4906 24.2023 33.3412C24.9079 32.9816 25.4816 32.408 25.8411 31.7024C25.9905 31.4091 26.1123 30.9887 26.1794 30.1667C26.2484 29.3228 26.2498 28.231 26.2498 26.6249V23.9999C26.2498 22.3939 26.2484 21.3021 26.1794 20.4582C26.1123 19.6361 25.9905 19.2157 25.8411 18.9225C25.4816 18.2169 24.9079 17.6432 24.2023 17.2837C23.9091 17.1343 23.4887 17.0125 22.6667 16.9454C21.8228 16.8764 20.731 16.875 19.1249 16.875H10.8749C9.26886 16.875 8.17706 16.8764 7.33315 16.9454Z" fill="url(#paint1_linear_85_1153)"/>
<path d="M13.125 26.25C13.125 25.2145 13.9645 24.375 15 24.375C16.0355 24.375 16.875 25.2145 16.875 26.25V28.125C16.875 29.1605 16.0355 30 15 30C13.9645 30 13.125 29.1605 13.125 28.125V26.25Z" fill="url(#paint2_linear_85_1153)"/>
<defs>
<linearGradient id="paint0_linear_85_1153" x1="7.81918" y1="1.68749" x2="23.3267" y2="2.25188" gradientUnits="userSpaceOnUse">
<stop stop-color="#10A9FF"/>
<stop offset="1" stop-color="#1DFFF1"/>
</linearGradient>
<linearGradient id="paint1_linear_85_1153" x1="0.63934" y1="15.5625" x2="31.6168" y2="17.1235" gradientUnits="userSpaceOnUse">
<stop stop-color="#10A9FF"/>
<stop offset="1" stop-color="#1DFFF1"/>
</linearGradient>
<linearGradient id="paint2_linear_85_1153" x1="13.2049" y1="24.9375" x2="17.084" y2="25.0434" gradientUnits="userSpaceOnUse">
<stop stop-color="#10A9FF"/>
<stop offset="1" stop-color="#1DFFF1"/>
</linearGradient>
</defs>
</svg>
