<svg width="30" height="30" viewBox="0 0 30 30" fill="none" xmlns="http://www.w3.org/2000/svg">
<path d="M2.56836 14.9353C2.56836 21.8388 8.1648 27.4353 15.0684 27.4353C20.9031 27.4353 25.8041 23.4376 27.1819 18.0318C27.2599 17.7255 27.0227 17.4353 26.7066 17.4353H22.4589C22.2497 17.4353 22.0641 17.5662 21.9827 17.7589C20.8822 20.363 18.3206 22.4353 15.0684 22.4353C10.0684 22.4353 7.56836 18.0603 7.56836 14.9353C7.56836 12.0577 9.40843 9.18014 12.2414 7.99696C12.4357 7.91582 12.5684 7.72935 12.5684 7.51881V3.29699C12.5684 2.98089 12.2782 2.74368 11.9719 2.82175C6.5661 4.19942 2.56836 9.10048 2.56836 14.9353Z" stroke="url(#paint0_linear_92_645)" stroke-width="2"/>
<path d="M2.56836 14.9353C2.56836 21.8388 8.1648 27.4353 15.0684 27.4353C20.9031 27.4353 25.8041 23.4376 27.1819 18.0318C27.2599 17.7255 27.0227 17.4353 26.7066 17.4353H22.4589C22.2497 17.4353 22.0641 17.5662 21.9827 17.7589C20.8822 20.363 18.3206 22.4353 15.0684 22.4353C10.0684 22.4353 7.56836 18.0603 7.56836 14.9353C7.56836 12.0577 9.40843 9.18014 12.2414 7.99696C12.4357 7.91582 12.5684 7.72935 12.5684 7.51881V3.29699C12.5684 2.98089 12.2782 2.74368 11.9719 2.82175C6.5661 4.19942 2.56836 9.10048 2.56836 14.9353Z" stroke="url(#paint1_linear_92_645)" stroke-width="2"/>
<path d="M27.3299 12.4879C26.3493 7.54768 22.4574 3.65561 17.5173 2.67477C17.2174 2.61523 16.9449 2.85004 16.9449 3.15581L16.9449 7.31041C16.9449 7.53565 17.096 7.73144 17.31 7.80194C19.5286 8.53311 21.4591 10.309 22.2218 12.6898C22.2912 12.9062 22.4882 13.0603 22.7154 13.0603L26.8489 13.0603C27.1546 13.0603 27.3894 12.7878 27.3299 12.4879Z" stroke="url(#paint2_linear_92_645)" stroke-width="2"/>
<path d="M27.3299 12.4879C26.3493 7.54768 22.4574 3.65561 17.5173 2.67477C17.2174 2.61523 16.9449 2.85004 16.9449 3.15581L16.9449 7.31041C16.9449 7.53565 17.096 7.73144 17.31 7.80194C19.5286 8.53311 21.4591 10.309 22.2218 12.6898C22.2912 12.9062 22.4882 13.0603 22.7154 13.0603L26.8489 13.0603C27.1546 13.0603 27.3894 12.7878 27.3299 12.4879Z" stroke="url(#paint3_linear_92_645)" stroke-width="2"/>
<defs>
<linearGradient id="paint0_linear_92_645" x1="3.09582" y1="5.16031" x2="28.6743" y2="6.20757" gradientUnits="userSpaceOnUse">
<stop stop-color="#1238FF"/>
<stop offset="1" stop-color="#7635FF"/>
</linearGradient>
<linearGradient id="paint1_linear_92_645" x1="2.56836" y1="2.6853" x2="28.407" y2="3.87954" gradientUnits="userSpaceOnUse">
<stop stop-color="#0047FF"/>
<stop offset="1" stop-color="#AC42FF"/>
</linearGradient>
<linearGradient id="paint2_linear_92_645" x1="26.3812" y1="2.79841" x2="25.9375" y2="13.6347" gradientUnits="userSpaceOnUse">
<stop stop-color="#1238FF"/>
<stop offset="1" stop-color="#7635FF"/>
</linearGradient>
<linearGradient id="paint3_linear_92_645" x1="27.4297" y1="2.57495" x2="26.9237" y2="13.5215" gradientUnits="userSpaceOnUse">
<stop stop-color="#0047FF"/>
<stop offset="1" stop-color="#AC42FF"/>
</linearGradient>
</defs>
</svg>
