<svg width="40" height="32" viewBox="0 0 40 32" fill="none" xmlns="http://www.w3.org/2000/svg">
<g clip-path="url(#clip0_115_205)">
<path d="M6.49737 24.1395C6.73876 23.896 7.07067 23.7539 7.42269 23.7539H39.3462C39.9296 23.7539 40.2213 24.4642 39.8089 24.8802L33.5027 31.2423C33.2613 31.4858 32.9294 31.6279 32.5773 31.6279H0.653772C0.0704181 31.6279 -0.221259 30.9176 0.191112 30.5016L6.49737 24.1395Z" fill="white"/>
<path d="M6.49722 0.385582C6.74866 0.142057 7.08057 0 7.42254 0H39.3461C39.9295 0 40.2211 0.710283 39.8088 1.12631L33.5025 7.48842C33.2611 7.73194 32.9292 7.874 32.5772 7.874H0.65362C0.0702655 7.874 -0.221412 7.16372 0.19096 6.74769L6.49722 0.385582Z" fill="white"/>
<path d="M33.5027 12.1864C33.2613 11.9429 32.9294 11.8008 32.5773 11.8008H0.653772C0.0704181 11.8008 -0.221259 12.5111 0.191112 12.9271L6.49737 19.2893C6.73876 19.5328 7.07067 19.6748 7.42269 19.6748H39.3462C39.9296 19.6748 40.2213 18.9646 39.8089 18.5485L33.5027 12.1864Z" fill="url(#paint0_linear_115_205)"/>
</g>
<defs>
<linearGradient id="paint0_linear_115_205" x1="31.4356" y1="-6.3609" x2="9.03424" y2="36.17" gradientUnits="userSpaceOnUse">
<stop stop-color="white"/>
<stop offset="1" stop-color="white"/>
</linearGradient>
<clipPath id="clip0_115_205">
<rect width="40" height="31.6279" fill="white"/>
</clipPath>
</defs>
</svg>
