<svg width="30" height="20" viewBox="0 0 30 20" fill="none" xmlns="http://www.w3.org/2000/svg">
<path fill-rule="evenodd" clip-rule="evenodd" d="M15 2.5C10.7291 2.5 7.21697 2.65095 4.76484 2.8028C3.68508 2.86966 2.83406 3.70243 2.74836 4.80184C2.61455 6.51834 2.5 8.45097 2.5 10C2.5 11.549 2.61455 13.4817 2.74836 15.1982C2.83406 16.2976 3.68508 17.1303 4.76484 17.1972C7.21697 17.349 10.7291 17.5 15 17.5C19.2709 17.5 22.783 17.349 25.2352 17.1972C26.3149 17.1303 27.1659 16.2976 27.2516 15.1982C27.3854 13.4817 27.5 11.549 27.5 10C27.5 8.45097 27.3854 6.51834 27.2516 4.80184C27.1659 3.70243 26.3149 2.86966 25.2352 2.8028C22.783 2.65095 19.2709 2.5 15 2.5ZM4.61032 0.307581C2.27626 0.452118 0.437667 2.27608 0.255922 4.60755C0.120644 6.34292 0 8.35243 0 10C0 11.6476 0.120644 13.6571 0.255922 15.3924C0.437667 17.7239 2.27625 19.5479 4.61032 19.6924C7.10677 19.847 10.6709 20 15 20C19.3291 20 22.8932 19.847 25.3897 19.6924C27.7237 19.5479 29.5623 17.7239 29.7441 15.3924C29.8794 13.6571 30 11.6476 30 10C30 8.35243 29.8794 6.34292 29.7441 4.60755C29.5623 2.27608 27.7237 0.452118 25.3897 0.307581C22.8932 0.152987 19.3291 0 15 0C10.6709 0 7.10677 0.152987 4.61032 0.307581Z" fill="white"/>
<path d="M14.441 6.29773L18.4375 8.96209C19.1797 9.45686 19.1797 10.5474 18.4375 11.0422L14.441 13.7066C13.6103 14.2604 12.4976 13.6649 12.4976 12.6665L12.4976 7.3378C12.4976 6.33943 13.6103 5.74394 14.441 6.29773Z" fill="white"/>
</svg>
