<svg width="30" height="30" viewBox="0 0 30 30" fill="none" xmlns="http://www.w3.org/2000/svg">
<path d="M9.11929 12.6058L14.9107 6.78152L20.7044 12.6105L24.0723 9.21974L14.9107 0L5.74902 9.21737L9.11929 12.6058Z" fill="url(#paint0_linear_92_630)"/>
<path d="M9.11929 12.6058L14.9107 6.78152L20.7044 12.6105L24.0723 9.21974L14.9107 0L5.74902 9.21737L9.11929 12.6058Z" fill="url(#paint1_linear_92_630)"/>
<path d="M-0.000976562 15.0012L3.36806 11.6117L6.73709 15.0012L3.36806 18.3907L-0.000976562 15.0012Z" fill="url(#paint2_linear_92_630)"/>
<path d="M-0.000976562 15.0012L3.36806 11.6117L6.73709 15.0012L3.36806 18.3907L-0.000976562 15.0012Z" fill="url(#paint3_linear_92_630)"/>
<path d="M9.11912 17.3942L14.9105 23.2208L20.7043 17.3918L24.0745 20.7779L24.0722 20.7802L14.9105 30L5.74885 20.785L5.74414 20.7802L9.11912 17.3942Z" fill="url(#paint4_linear_92_630)"/>
<path d="M9.11912 17.3942L14.9105 23.2208L20.7043 17.3918L24.0745 20.7779L24.0722 20.7802L14.9105 30L5.74885 20.785L5.74414 20.7802L9.11912 17.3942Z" fill="url(#paint5_linear_92_630)"/>
<path d="M23.0791 15.0022L26.4481 11.6127L29.8172 15.0022L26.4481 18.3917L23.0791 15.0022Z" fill="url(#paint6_linear_92_630)"/>
<path d="M23.0791 15.0022L26.4481 11.6127L29.8172 15.0022L26.4481 18.3917L23.0791 15.0022Z" fill="url(#paint7_linear_92_630)"/>
<path d="M18.3277 14.9989L14.9104 11.5583L12.3833 14.1008L12.0912 14.3923L11.493 14.9941L11.4883 14.9989L11.493 15.006L14.9104 18.4418L18.3277 15.0012L18.3301 14.9989H18.3277Z" fill="url(#paint8_linear_92_630)"/>
<path d="M18.3277 14.9989L14.9104 11.5583L12.3833 14.1008L12.0912 14.3923L11.493 14.9941L11.4883 14.9989L11.493 15.006L14.9104 18.4418L18.3277 15.0012L18.3301 14.9989H18.3277Z" fill="url(#paint9_linear_92_630)"/>
<defs>
<linearGradient id="paint0_linear_92_630" x1="6.13952" y1="1.26106" x2="25.0411" y2="2.38553" gradientUnits="userSpaceOnUse">
<stop stop-color="#1238FF"/>
<stop offset="1" stop-color="#7635FF"/>
</linearGradient>
<linearGradient id="paint1_linear_92_630" x1="5.74902" y1="0" x2="24.8332" y2="1.28164" gradientUnits="userSpaceOnUse">
<stop stop-color="#0047FF"/>
<stop offset="1" stop-color="#AC42FF"/>
</linearGradient>
<linearGradient id="paint2_linear_92_630" x1="0.407727" y1="15.2679" x2="4.05227" y2="11.9304" gradientUnits="userSpaceOnUse">
<stop stop-color="#1238FF"/>
<stop offset="1" stop-color="#7635FF"/>
</linearGradient>
<linearGradient id="paint3_linear_92_630" x1="-0.000976563" y1="15.0012" x2="3.69906" y2="11.6485" gradientUnits="userSpaceOnUse">
<stop stop-color="#0047FF"/>
<stop offset="1" stop-color="#AC42FF"/>
</linearGradient>
<linearGradient id="paint4_linear_92_630" x1="6.13479" y1="18.6527" x2="25.0436" y2="19.7782" gradientUnits="userSpaceOnUse">
<stop stop-color="#1238FF"/>
<stop offset="1" stop-color="#7635FF"/>
</linearGradient>
<linearGradient id="paint5_linear_92_630" x1="5.74414" y1="17.3918" x2="24.8355" y2="18.6747" gradientUnits="userSpaceOnUse">
<stop stop-color="#0047FF"/>
<stop offset="1" stop-color="#AC42FF"/>
</linearGradient>
<linearGradient id="paint6_linear_92_630" x1="23.4878" y1="15.2689" x2="27.1323" y2="11.9314" gradientUnits="userSpaceOnUse">
<stop stop-color="#1238FF"/>
<stop offset="1" stop-color="#7635FF"/>
</linearGradient>
<linearGradient id="paint7_linear_92_630" x1="23.0791" y1="15.0022" x2="26.7791" y2="11.6495" gradientUnits="userSpaceOnUse">
<stop stop-color="#0047FF"/>
<stop offset="1" stop-color="#AC42FF"/>
</linearGradient>
<linearGradient id="paint8_linear_92_630" x1="11.6341" y1="12.2467" x2="18.7051" y2="12.5345" gradientUnits="userSpaceOnUse">
<stop stop-color="#1238FF"/>
<stop offset="1" stop-color="#7635FF"/>
</linearGradient>
<linearGradient id="paint9_linear_92_630" x1="11.4883" y1="11.5583" x2="18.6312" y2="11.8865" gradientUnits="userSpaceOnUse">
<stop stop-color="#0047FF"/>
<stop offset="1" stop-color="#AC42FF"/>
</linearGradient>
</defs>
</svg>
