<svg width="20" height="20" viewBox="0 0 20 20" fill="none" xmlns="http://www.w3.org/2000/svg">
<mask id="path-1-inside-1_92_658" fill="white">
<path fill-rule="evenodd" clip-rule="evenodd" d="M14 2H6C3.79086 2 2 3.79086 2 6V14C2 16.2091 3.79086 18 6 18H14C16.2091 18 18 16.2091 18 14V6C18 3.79086 16.2091 2 14 2ZM6 0C2.68629 0 0 2.68629 0 6V14C0 17.3137 2.68629 20 6 20H14C17.3137 20 20 17.3137 20 14V6C20 2.68629 17.3137 0 14 0H6Z"/>
</mask>
<path fill-rule="evenodd" clip-rule="evenodd" d="M14 2H6C3.79086 2 2 3.79086 2 6V14C2 16.2091 3.79086 18 6 18H14C16.2091 18 18 16.2091 18 14V6C18 3.79086 16.2091 2 14 2ZM6 0C2.68629 0 0 2.68629 0 6V14C0 17.3137 2.68629 20 6 20H14C17.3137 20 20 17.3137 20 14V6C20 2.68629 17.3137 0 14 0H6Z" fill="white"/>
<path d="M6 4H14V0H6V4ZM4 6C4 4.89543 4.89543 4 6 4V0C2.68629 0 0 2.68629 0 6H4ZM4 14V6H0V14H4ZM6 16C4.89543 16 4 15.1046 4 14H0C0 17.3137 2.68629 20 6 20V16ZM14 16H6V20H14V16ZM16 14C16 15.1046 15.1046 16 14 16V20C17.3137 20 20 17.3137 20 14H16ZM16 6V14H20V6H16ZM14 4C15.1046 4 16 4.89543 16 6H20C20 2.68629 17.3137 0 14 0V4ZM2 6C2 3.79086 3.79086 2 6 2V-2C1.58172 -2 -2 1.58172 -2 6H2ZM2 14V6H-2V14H2ZM6 18C3.79086 18 2 16.2091 2 14H-2C-2 18.4183 1.58172 22 6 22V18ZM14 18H6V22H14V18ZM18 14C18 16.2091 16.2091 18 14 18V22C18.4183 22 22 18.4183 22 14H18ZM18 6V14H22V6H18ZM14 2C16.2091 2 18 3.79086 18 6H22C22 1.58172 18.4183 -2 14 -2V2ZM6 2H14V-2H6V2Z" fill="url(#paint0_linear_92_658)" mask="url(#path-1-inside-1_92_658)"/>
<path d="M6 4H14V0H6V4ZM4 6C4 4.89543 4.89543 4 6 4V0C2.68629 0 0 2.68629 0 6H4ZM4 14V6H0V14H4ZM6 16C4.89543 16 4 15.1046 4 14H0C0 17.3137 2.68629 20 6 20V16ZM14 16H6V20H14V16ZM16 14C16 15.1046 15.1046 16 14 16V20C17.3137 20 20 17.3137 20 14H16ZM16 6V14H20V6H16ZM14 4C15.1046 4 16 4.89543 16 6H20C20 2.68629 17.3137 0 14 0V4ZM2 6C2 3.79086 3.79086 2 6 2V-2C1.58172 -2 -2 1.58172 -2 6H2ZM2 14V6H-2V14H2ZM6 18C3.79086 18 2 16.2091 2 14H-2C-2 18.4183 1.58172 22 6 22V18ZM14 18H6V22H14V18ZM18 14C18 16.2091 16.2091 18 14 18V22C18.4183 22 22 18.4183 22 14H18ZM18 6V14H22V6H18ZM14 2C16.2091 2 18 3.79086 18 6H22C22 1.58172 18.4183 -2 14 -2V2ZM6 2H14V-2H6V2Z" fill="url(#paint1_linear_92_658)" mask="url(#path-1-inside-1_92_658)"/>
<path d="M15.5 5C15.5 5.27614 15.2761 5.5 15 5.5C14.7239 5.5 14.5 5.27614 14.5 5C14.5 4.72386 14.7239 4.5 15 4.5C15.2761 4.5 15.5 4.72386 15.5 5ZM14.5 10C14.5 12.4853 12.4853 14.5 10 14.5C7.51472 14.5 5.5 12.4853 5.5 10C5.5 7.51472 7.51472 5.5 10 5.5C12.4853 5.5 14.5 7.51472 14.5 10ZM10 13.5C11.933 13.5 13.5 11.933 13.5 10C13.5 8.067 11.933 6.5 10 6.5C8.067 6.5 6.5 8.067 6.5 10C6.5 11.933 8.067 13.5 10 13.5Z" fill="white"/>
<path d="M15.5 5C15.5 5.27614 15.2761 5.5 15 5.5C14.7239 5.5 14.5 5.27614 14.5 5C14.5 4.72386 14.7239 4.5 15 4.5C15.2761 4.5 15.5 4.72386 15.5 5ZM14.5 10C14.5 12.4853 12.4853 14.5 10 14.5C7.51472 14.5 5.5 12.4853 5.5 10C5.5 7.51472 7.51472 5.5 10 5.5C12.4853 5.5 14.5 7.51472 14.5 10ZM10 13.5C11.933 13.5 13.5 11.933 13.5 10C13.5 8.067 11.933 6.5 10 6.5C8.067 6.5 6.5 8.067 6.5 10C6.5 11.933 8.067 13.5 10 13.5Z" stroke="url(#paint2_linear_92_658)"/>
<path d="M15.5 5C15.5 5.27614 15.2761 5.5 15 5.5C14.7239 5.5 14.5 5.27614 14.5 5C14.5 4.72386 14.7239 4.5 15 4.5C15.2761 4.5 15.5 4.72386 15.5 5ZM14.5 10C14.5 12.4853 12.4853 14.5 10 14.5C7.51472 14.5 5.5 12.4853 5.5 10C5.5 7.51472 7.51472 5.5 10 5.5C12.4853 5.5 14.5 7.51472 14.5 10ZM10 13.5C11.933 13.5 13.5 11.933 13.5 10C13.5 8.067 11.933 6.5 10 6.5C8.067 6.5 6.5 8.067 6.5 10C6.5 11.933 8.067 13.5 10 13.5Z" stroke="url(#paint3_linear_92_658)"/>
<defs>
<linearGradient id="paint0_linear_92_658" x1="0.426229" y1="2.00001" x2="21.0958" y2="2.84629" gradientUnits="userSpaceOnUse">
<stop stop-color="#1238FF"/>
<stop offset="1" stop-color="#7635FF"/>
</linearGradient>
<linearGradient id="paint1_linear_92_658" x1="0" y1="0" x2="20.8798" y2="0.965043" gradientUnits="userSpaceOnUse">
<stop stop-color="#0047FF"/>
<stop offset="1" stop-color="#AC42FF"/>
</linearGradient>
<linearGradient id="paint2_linear_92_658" x1="5.23443" y1="5.1" x2="16.6027" y2="5.56546" gradientUnits="userSpaceOnUse">
<stop stop-color="#1238FF"/>
<stop offset="1" stop-color="#7635FF"/>
</linearGradient>
<linearGradient id="paint3_linear_92_658" x1="5" y1="4" x2="16.4839" y2="4.53077" gradientUnits="userSpaceOnUse">
<stop stop-color="#0047FF"/>
<stop offset="1" stop-color="#AC42FF"/>
</linearGradient>
</defs>
</svg>
