<svg width="327" height="52" viewBox="0 0 327 52" fill="none" xmlns="http://www.w3.org/2000/svg">
<path d="M59.9238 36.8658V15.451H66.7524C68.4633 15.451 69.9791 15.689 71.2998 16.1648C72.6205 16.6308 73.736 17.3199 74.6465 18.232C75.557 19.1441 76.2473 20.2644 76.7176 21.5929C77.1878 22.9214 77.423 24.4432 77.423 26.1584C77.423 27.8736 77.1878 29.3954 76.7176 30.7239C76.2473 32.0524 75.557 33.1727 74.6465 34.0849C73.736 34.997 72.6205 35.691 71.2998 36.1668C69.9791 36.6328 68.4633 36.8658 66.7524 36.8658H59.9238ZM63.5707 33.5049H66.3772C71.1997 33.5049 73.611 31.0561 73.611 26.1584C73.611 21.2608 71.1997 18.812 66.3772 18.812H63.5707V33.5049Z" fill="white"/>
<path d="M90.1097 37.3119C88.4889 37.3119 87.0381 37.0443 85.7575 36.5089C84.4868 35.9636 83.4062 35.2052 82.5158 34.2336C81.6253 33.2521 80.945 32.0772 80.4747 30.7091C80.0045 29.3409 79.7693 27.824 79.7693 26.1584C79.7693 24.4928 80.0045 22.9759 80.4747 21.6078C80.945 20.2396 81.6253 19.0697 82.5158 18.0981C83.4062 17.1166 84.4868 16.3582 85.7575 15.8228C87.0381 15.2775 88.4889 15.0049 90.1097 15.0049C91.7306 15.0049 93.1813 15.2775 94.462 15.8228C95.7427 16.3582 96.8283 17.1166 97.7187 18.0981C98.6092 19.0697 99.2895 20.2396 99.7598 21.6078C100.23 22.9759 100.465 24.4928 100.465 26.1584C100.465 27.824 100.23 29.3409 99.7598 30.7091C99.2895 32.0772 98.6092 33.2521 97.7187 34.2336C96.8283 35.2052 95.7427 35.9636 94.462 36.5089C93.1813 37.0443 91.7306 37.3119 90.1097 37.3119ZM90.1097 33.9361C91.2003 33.9361 92.1508 33.7527 92.9612 33.3859C93.7817 33.0092 94.462 32.4837 95.0023 31.8095C95.5526 31.1255 95.9628 30.3075 96.2329 29.3558C96.5031 28.3941 96.6382 27.3283 96.6382 26.1584C96.6382 24.9885 96.5031 23.9277 96.2329 22.9759C95.9628 22.0143 95.5526 21.1963 95.0023 20.5222C94.462 19.8381 93.7817 19.3126 92.9612 18.9458C92.1508 18.5691 91.2003 18.3807 90.1097 18.3807C89.0192 18.3807 88.0687 18.5691 87.2583 18.9458C86.4478 19.3126 85.7725 19.8381 85.2322 20.5222C84.6919 21.1963 84.2817 22.0143 84.0016 22.9759C83.7314 23.9277 83.5963 24.9885 83.5963 26.1584C83.5963 27.3283 83.7314 28.3941 84.0016 29.3558C84.2717 30.3075 84.6769 31.1255 85.2172 31.8095C85.7575 32.4837 86.4328 33.0092 87.2432 33.3859C88.0637 33.7527 89.0192 33.9361 90.1097 33.9361Z" fill="white"/>
<path d="M111.557 37.3119C110.256 37.3119 109.07 37.1236 108 36.7468C106.939 36.3602 106.024 35.7901 105.253 35.0366C104.493 34.2831 103.903 33.3462 103.482 32.2259C103.062 31.0957 102.852 29.792 102.852 28.3148V15.451H106.484V28.166C106.484 30.1092 106.899 31.5567 107.73 32.5085C108.56 33.4603 109.836 33.9361 111.557 33.9361C113.288 33.9361 114.563 33.4603 115.384 32.5085C116.214 31.5567 116.629 30.1092 116.629 28.166V15.451H120.261V28.3148C120.261 29.792 120.051 31.0957 119.631 32.2259C119.211 33.3462 118.62 34.2831 117.86 35.0366C117.1 35.7901 116.184 36.3602 115.113 36.7468C114.043 37.1236 112.857 37.3119 111.557 37.3119Z" fill="white"/>
<path d="M130.834 36.8658H122.504V15.451H130.608C131.609 15.451 132.544 15.57 133.415 15.8079C134.295 16.036 135.056 16.383 135.696 16.8489C136.346 17.3149 136.857 17.8998 137.227 18.6038C137.597 19.3077 137.782 20.1305 137.782 21.0724C137.782 21.7664 137.687 22.3811 137.497 22.9165C137.307 23.4419 137.062 23.898 136.762 24.2846C136.461 24.6713 136.126 24.9836 135.756 25.2215C135.386 25.4595 135.026 25.633 134.676 25.742C135.106 25.8213 135.546 25.9849 135.996 26.2328C136.446 26.4806 136.857 26.8227 137.227 27.2589C137.597 27.6852 137.897 28.2008 138.127 28.8055C138.367 29.4103 138.488 30.1092 138.488 30.9024C138.488 31.9434 138.287 32.8406 137.887 33.5941C137.487 34.3476 136.937 34.9672 136.236 35.453C135.546 35.9388 134.736 36.2957 133.805 36.5238C132.875 36.7518 131.884 36.8658 130.834 36.8658ZM130.683 18.812H126.136V24.1805H130.834C131.294 24.1805 131.724 24.1359 132.124 24.0467C132.524 23.9575 132.87 23.8087 133.16 23.6005C133.46 23.3824 133.695 23.0999 133.865 22.7529C134.035 22.4059 134.12 21.9796 134.12 21.4739C134.12 20.9683 134.03 20.5469 133.85 20.2099C133.68 19.8629 133.44 19.5853 133.13 19.3771C132.83 19.1689 132.469 19.0251 132.049 18.9458C131.629 18.8566 131.174 18.812 130.683 18.812ZM130.834 33.5049C131.364 33.5049 131.869 33.4652 132.349 33.3859C132.83 33.3066 133.255 33.1579 133.625 32.9398C134.005 32.7117 134.305 32.4044 134.525 32.0177C134.746 31.6212 134.856 31.1106 134.856 30.486C134.856 29.8713 134.746 29.3706 134.525 28.984C134.305 28.5973 134.01 28.2949 133.64 28.0768C133.28 27.8488 132.865 27.6951 132.394 27.6158C131.924 27.5266 131.444 27.482 130.954 27.482H126.136V33.5049H130.834Z" fill="white"/>
<path d="M140.748 36.8658V15.451H144.38V33.5049H153.925V36.8658H140.748Z" fill="white"/>
<path d="M156.332 36.8658V15.451H170.319V18.812H159.963V24.0913H168.518V27.4522H159.963V33.5049H170.319V36.8658H156.332Z" fill="white"/>
<path d="M179.007 36.8658V18.812H172.568V15.451H189.062V18.812H182.653V36.8658H179.007Z" fill="white"/>
<path d="M199.097 37.3119C197.476 37.3119 196.026 37.0443 194.745 36.5089C193.474 35.9636 192.394 35.2052 191.503 34.2336C190.613 33.2521 189.932 32.0772 189.462 30.7091C188.992 29.3409 188.757 27.824 188.757 26.1584C188.757 24.4928 188.992 22.9759 189.462 21.6078C189.932 20.2396 190.613 19.0697 191.503 18.0981C192.394 17.1166 193.474 16.3582 194.745 15.8228C196.026 15.2775 197.476 15.0049 199.097 15.0049C200.718 15.0049 202.169 15.2775 203.449 15.8228C204.73 16.3582 205.816 17.1166 206.706 18.0981C207.597 19.0697 208.277 20.2396 208.747 21.6078C209.217 22.9759 209.453 24.4928 209.453 26.1584C209.453 27.824 209.217 29.3409 208.747 30.7091C208.277 32.0772 207.597 33.2521 206.706 34.2336C205.816 35.2052 204.73 35.9636 203.449 36.5089C202.169 37.0443 200.718 37.3119 199.097 37.3119ZM199.097 33.9361C200.188 33.9361 201.138 33.7527 201.949 33.3859C202.769 33.0092 203.449 32.4837 203.99 31.8095C204.54 31.1255 204.95 30.3075 205.22 29.3558C205.49 28.3941 205.626 27.3283 205.626 26.1584C205.626 24.9885 205.49 23.9277 205.22 22.9759C204.95 22.0143 204.54 21.1963 203.99 20.5222C203.449 19.8381 202.769 19.3126 201.949 18.9458C201.138 18.5691 200.188 18.3807 199.097 18.3807C198.007 18.3807 197.056 18.5691 196.246 18.9458C195.435 19.3126 194.76 19.8381 194.22 20.5222C193.679 21.1963 193.269 22.0143 192.989 22.9759C192.719 23.9277 192.584 24.9885 192.584 26.1584C192.584 27.3283 192.719 28.3941 192.989 29.3558C193.259 30.3075 193.664 31.1255 194.205 31.8095C194.745 32.4837 195.42 33.0092 196.231 33.3859C197.051 33.7527 198.007 33.9361 199.097 33.9361Z" fill="white"/>
<path d="M211.689 36.8658V15.451H220.229C221.51 15.451 222.625 15.6097 223.576 15.9269C224.536 16.2442 225.332 16.7052 225.962 17.3099C226.602 17.9048 227.082 18.6335 227.403 19.496C227.723 20.3586 227.883 21.3351 227.883 22.4257C227.883 23.5163 227.723 24.4928 227.403 25.3554C227.082 26.2179 226.602 26.9466 225.962 27.5415C225.322 28.1363 224.521 28.5924 223.561 28.9096C222.61 29.2269 221.5 29.3855 220.229 29.3855H215.336V36.8658H211.689ZM215.336 26.0394H220.199C221.51 26.0394 222.51 25.7321 223.2 25.1174C223.891 24.4928 224.236 23.5956 224.236 22.4257C224.236 21.2558 223.891 20.3635 223.2 19.7489C222.51 19.1243 221.51 18.812 220.199 18.812H215.336V26.0394Z" fill="white"/>
<path d="M40.1401 15.0093C40.5143 15.2337 40.7432 15.6371 40.7432 16.0725V35.1025C40.7432 35.5379 40.5143 35.9413 40.1401 36.1657L23.2766 46.275C22.8819 46.5116 22.3884 46.5116 21.9938 46.275L5.81645 36.5772C5.41627 36.3373 5.31684 35.8025 5.60421 35.4356L10.2454 29.5099C10.7226 28.9007 11.585 28.7512 12.2403 29.1639L17.38 32.4017C18.6884 33.226 20.4099 32.9295 21.3655 31.7152L29.8702 20.9082C30.3459 20.3035 31.2019 20.1537 31.8555 20.5602L35.6113 22.8961C35.9222 23.0894 36.3251 22.8666 36.3251 22.5014V18.4489C36.3251 18.1813 36.1867 17.9327 35.959 17.791L31.9524 15.2992C30.6449 14.4859 28.933 14.7858 27.9816 15.9949L19.4867 26.7896C19.0089 27.3968 18.1481 27.545 17.4938 27.1329L12.349 23.8917C11.0383 23.0661 9.31353 23.3651 8.35912 24.5837L1.08885 33.866C0.383259 34.7668 -0.0830642 35.898 0.214886 37.0016C0.507596 38.0858 1.12209 39.0313 2.19501 39.6744L20.3031 50.5298C21.7381 51.3901 23.5321 51.3901 24.9672 50.5298L43.0753 39.6744C44.4371 38.858 45.2702 37.3891 45.2702 35.8041V15.3709C45.2702 13.786 44.4371 12.3171 43.0753 11.5006L24.9672 0.645214C23.5321 -0.215071 21.7381 -0.215071 20.3031 0.645214L2.19501 11.5006C0.833085 12.3171 0 13.786 0 15.3709V26.7568C0 27.1996 0.56193 27.392 0.834895 27.0427L4.19865 22.7378C4.41146 22.4654 4.52702 22.1301 4.52702 21.7849V16.0725C4.52702 15.6371 4.75592 15.2337 5.13017 15.0093L21.9938 4.89998C22.3884 4.66339 22.8819 4.66339 23.2766 4.89998L40.1401 15.0093Z" fill="white"/>
<path d="M40.1401 15.0093C40.5143 15.2337 40.7432 15.6371 40.7432 16.0725V35.1025C40.7432 35.5379 40.5143 35.9413 40.1401 36.1657L23.2766 46.275C22.8819 46.5116 22.3884 46.5116 21.9938 46.275L5.81645 36.5772C5.41627 36.3373 5.31684 35.8025 5.60421 35.4356L10.2454 29.5099C10.7226 28.9007 11.585 28.7512 12.2403 29.1639L17.38 32.4017C18.6884 33.226 20.4099 32.9295 21.3655 31.7152L29.8702 20.9082C30.3459 20.3035 31.2019 20.1537 31.8555 20.5602L35.6113 22.8961C35.9222 23.0894 36.3251 22.8666 36.3251 22.5014V18.4489C36.3251 18.1813 36.1867 17.9327 35.959 17.791L31.9524 15.2992C30.6449 14.4859 28.933 14.7858 27.9816 15.9949L19.4867 26.7896C19.0089 27.3968 18.1481 27.545 17.4938 27.1329L12.349 23.8917C11.0383 23.0661 9.31353 23.3651 8.35912 24.5837L1.08885 33.866C0.383259 34.7668 -0.0830642 35.898 0.214886 37.0016C0.507596 38.0858 1.12209 39.0313 2.19501 39.6744L20.3031 50.5298C21.7381 51.3901 23.5321 51.3901 24.9672 50.5298L43.0753 39.6744C44.4371 38.858 45.2702 37.3891 45.2702 35.8041V15.3709C45.2702 13.786 44.4371 12.3171 43.0753 11.5006L24.9672 0.645214C23.5321 -0.215071 21.7381 -0.215071 20.3031 0.645214L2.19501 11.5006C0.833085 12.3171 0 13.786 0 15.3709V26.7568C0 27.1996 0.56193 27.392 0.834895 27.0427L4.19865 22.7378C4.41146 22.4654 4.52702 22.1301 4.52702 21.7849V16.0725C4.52702 15.6371 4.75592 15.2337 5.13017 15.0093L21.9938 4.89998C22.3884 4.66339 22.8819 4.66339 23.2766 4.89998L40.1401 15.0093Z" fill="url(#paint0_linear_92_517)"/>
<path d="M40.1401 15.0093C40.5143 15.2337 40.7432 15.6371 40.7432 16.0725V35.1025C40.7432 35.5379 40.5143 35.9413 40.1401 36.1657L23.2766 46.275C22.8819 46.5116 22.3884 46.5116 21.9938 46.275L5.81645 36.5772C5.41627 36.3373 5.31684 35.8025 5.60421 35.4356L10.2454 29.5099C10.7226 28.9007 11.585 28.7512 12.2403 29.1639L17.38 32.4017C18.6884 33.226 20.4099 32.9295 21.3655 31.7152L29.8702 20.9082C30.3459 20.3035 31.2019 20.1537 31.8555 20.5602L35.6113 22.8961C35.9222 23.0894 36.3251 22.8666 36.3251 22.5014V18.4489C36.3251 18.1813 36.1867 17.9327 35.959 17.791L31.9524 15.2992C30.6449 14.4859 28.933 14.7858 27.9816 15.9949L19.4867 26.7896C19.0089 27.3968 18.1481 27.545 17.4938 27.1329L12.349 23.8917C11.0383 23.0661 9.31353 23.3651 8.35912 24.5837L1.08885 33.866C0.383259 34.7668 -0.0830642 35.898 0.214886 37.0016C0.507596 38.0858 1.12209 39.0313 2.19501 39.6744L20.3031 50.5298C21.7381 51.3901 23.5321 51.3901 24.9672 50.5298L43.0753 39.6744C44.4371 38.858 45.2702 37.3891 45.2702 35.8041V15.3709C45.2702 13.786 44.4371 12.3171 43.0753 11.5006L24.9672 0.645214C23.5321 -0.215071 21.7381 -0.215071 20.3031 0.645214L2.19501 11.5006C0.833085 12.3171 0 13.786 0 15.3709V26.7568C0 27.1996 0.56193 27.392 0.834895 27.0427L4.19865 22.7378C4.41146 22.4654 4.52702 22.1301 4.52702 21.7849V16.0725C4.52702 15.6371 4.75592 15.2337 5.13017 15.0093L21.9938 4.89998C22.3884 4.66339 22.8819 4.66339 23.2766 4.89998L40.1401 15.0093Z" fill="url(#paint1_linear_92_517)"/>
<path d="M40.1401 15.0093C40.5143 15.2337 40.7432 15.6371 40.7432 16.0725V35.1025C40.7432 35.5379 40.5143 35.9413 40.1401 36.1657L23.2766 46.275C22.8819 46.5116 22.3884 46.5116 21.9938 46.275L5.81645 36.5772C5.41627 36.3373 5.31684 35.8025 5.60421 35.4356L10.2454 29.5099C10.7226 28.9007 11.585 28.7512 12.2403 29.1639L17.38 32.4017C18.6884 33.226 20.4099 32.9295 21.3655 31.7152L29.8702 20.9082C30.3459 20.3035 31.2019 20.1537 31.8555 20.5602L35.6113 22.8961C35.9222 23.0894 36.3251 22.8666 36.3251 22.5014V18.4489C36.3251 18.1813 36.1867 17.9327 35.959 17.791L31.9524 15.2992C30.6449 14.4859 28.933 14.7858 27.9816 15.9949L19.4867 26.7896C19.0089 27.3968 18.1481 27.545 17.4938 27.1329L12.349 23.8917C11.0383 23.0661 9.31353 23.3651 8.35912 24.5837L1.08885 33.866C0.383259 34.7668 -0.0830642 35.898 0.214886 37.0016C0.507596 38.0858 1.12209 39.0313 2.19501 39.6744L20.3031 50.5298C21.7381 51.3901 23.5321 51.3901 24.9672 50.5298L43.0753 39.6744C44.4371 38.858 45.2702 37.3891 45.2702 35.8041V15.3709C45.2702 13.786 44.4371 12.3171 43.0753 11.5006L24.9672 0.645214C23.5321 -0.215071 21.7381 -0.215071 20.3031 0.645214L2.19501 11.5006C0.833085 12.3171 0 13.786 0 15.3709V26.7568C0 27.1996 0.56193 27.392 0.834895 27.0427L4.19865 22.7378C4.41146 22.4654 4.52702 22.1301 4.52702 21.7849V16.0725C4.52702 15.6371 4.75592 15.2337 5.13017 15.0093L21.9938 4.89998C22.3884 4.66339 22.8819 4.66339 23.2766 4.89998L40.1401 15.0093Z" fill="url(#paint2_linear_92_517)"/>
<rect x="234.771" y="15.333" width="91.5795" height="21.3229" rx="4.92067" fill="url(#paint3_linear_92_517)"/>
<rect x="234.771" y="15.333" width="91.5795" height="21.3229" rx="4.92067" fill="url(#paint4_linear_92_517)"/>
<path d="M239.741 31.9946V21.366H246.62V23.0341H241.528V25.6543H245.735V27.3224H241.528V30.3265H246.62V31.9946H239.741ZM248.391 31.9946V21.366H251.749C252.591 21.366 253.336 21.4841 253.986 21.7203C254.635 21.9515 255.184 22.2935 255.632 22.7462C256.08 23.1989 256.419 23.755 256.65 24.4143C256.882 25.0737 256.997 25.829 256.997 26.6803C256.997 27.5316 256.882 28.2869 256.65 28.9463C256.419 29.6056 256.08 30.1617 255.632 30.6144C255.184 31.0671 254.635 31.4115 253.986 31.6477C253.336 31.879 252.591 31.9946 251.749 31.9946H248.391ZM250.185 30.3265H251.565C253.937 30.3265 255.122 29.1111 255.122 26.6803C255.122 24.2495 253.937 23.0341 251.565 23.0341H250.185V30.3265ZM263.023 32.2161C262.383 32.2161 261.8 32.1226 261.273 31.9356C260.752 31.7437 260.302 31.4607 259.923 31.0868C259.549 30.7128 259.258 30.2478 259.052 29.6918C258.845 29.1308 258.742 28.4837 258.742 27.7505V21.366H260.528V27.6767C260.528 28.6412 260.732 29.3596 261.141 29.832C261.549 30.3044 262.176 30.5406 263.023 30.5406C263.874 30.5406 264.501 30.3044 264.905 29.832C265.313 29.3596 265.517 28.6412 265.517 27.6767V21.366H267.304V27.7505C267.304 28.4837 267.2 29.1308 266.994 29.6918C266.787 30.2478 266.497 30.7128 266.123 31.0868C265.749 31.4607 265.298 31.7437 264.772 31.9356C264.245 32.1226 263.662 32.2161 263.023 32.2161ZM273.861 32.2161C273.064 32.2161 272.351 32.0832 271.721 31.8175C271.096 31.5468 270.564 31.1704 270.127 30.6882C269.689 30.201 269.354 29.6179 269.123 28.9389C268.891 28.2598 268.776 27.507 268.776 26.6803C268.776 25.8536 268.891 25.1008 269.123 24.4217C269.354 23.7427 269.689 23.162 270.127 22.6798C270.564 22.1926 271.096 21.8162 271.721 21.5505C272.351 21.2799 273.064 21.1445 273.861 21.1445C274.472 21.1445 275.032 21.2233 275.544 21.3807C276.061 21.5382 276.521 21.7645 276.924 22.0598C277.328 22.355 277.675 22.7118 277.965 23.13C278.256 23.5483 278.482 24.0182 278.644 24.5398L276.851 25.0343C276.747 24.6899 276.607 24.3823 276.43 24.1117C276.258 23.8362 276.046 23.6024 275.795 23.4105C275.549 23.2186 275.264 23.0734 274.939 22.975C274.619 22.8717 274.26 22.82 273.861 22.82C273.345 22.82 272.885 22.9135 272.481 23.1005C272.083 23.2826 271.745 23.5434 271.47 23.8829C271.199 24.2175 270.993 24.6235 270.85 25.1008C270.712 25.5731 270.643 26.0997 270.643 26.6803C270.643 27.2609 270.71 27.7899 270.843 28.2672C270.98 28.7396 271.182 29.1456 271.448 29.4851C271.718 29.8197 272.053 30.0805 272.452 30.2675C272.855 30.4495 273.325 30.5406 273.861 30.5406C274.26 30.5406 274.619 30.4914 274.939 30.3929C275.264 30.2896 275.549 30.142 275.795 29.9501C276.046 29.7582 276.258 29.5269 276.43 29.2563C276.607 28.9807 276.747 28.6707 276.851 28.3263L278.644 28.8208C278.482 29.3424 278.256 29.8123 277.965 30.2306C277.675 30.6488 277.328 31.0056 276.924 31.3008C276.521 31.5961 276.061 31.8224 275.544 31.9799C275.032 32.1373 274.472 32.2161 273.861 32.2161ZM288.598 31.9946H286.723L285.97 29.6918H281.822L281.069 31.9946H279.194L282.715 21.366H285.084L288.598 31.9946ZM285.431 28.031L283.896 23.3146L282.361 28.031H285.431ZM291.282 31.9946V23.0341H288.115V21.366H296.227V23.0341H293.075V31.9946H291.282ZM297.553 31.9946V21.366H299.347V31.9946H297.553ZM306.052 32.2161C305.255 32.2161 304.542 32.0832 303.912 31.8175C303.287 31.5468 302.756 31.1704 302.318 30.6882C301.88 30.201 301.545 29.6179 301.314 28.9389C301.082 28.2598 300.967 27.507 300.967 26.6803C300.967 25.8536 301.082 25.1008 301.314 24.4217C301.545 23.7427 301.88 23.162 302.318 22.6798C302.756 22.1926 303.287 21.8162 303.912 21.5505C304.542 21.2799 305.255 21.1445 306.052 21.1445C306.85 21.1445 307.563 21.2799 308.193 21.5505C308.823 21.8162 309.357 22.1926 309.795 22.6798C310.232 23.162 310.567 23.7427 310.798 24.4217C311.03 25.1008 311.145 25.8536 311.145 26.6803C311.145 27.507 311.03 28.2598 310.798 28.9389C310.567 29.6179 310.232 30.201 309.795 30.6882C309.357 31.1704 308.823 31.5468 308.193 31.8175C307.563 32.0832 306.85 32.2161 306.052 32.2161ZM306.052 30.5406C306.589 30.5406 307.056 30.4495 307.455 30.2675C307.858 30.0805 308.193 29.8197 308.459 29.4851C308.729 29.1456 308.931 28.7396 309.064 28.2672C309.197 27.7899 309.263 27.2609 309.263 26.6803C309.263 26.0997 309.197 25.5731 309.064 25.1008C308.931 24.6235 308.729 24.2175 308.459 23.8829C308.193 23.5434 307.858 23.2826 307.455 23.1005C307.056 22.9135 306.589 22.82 306.052 22.82C305.516 22.82 305.049 22.9135 304.65 23.1005C304.251 23.2826 303.919 23.5434 303.654 23.8829C303.388 24.2175 303.186 24.6235 303.048 25.1008C302.915 25.5731 302.849 26.0997 302.849 26.6803C302.849 27.2609 302.915 27.7899 303.048 28.2672C303.181 28.7396 303.38 29.1456 303.646 29.4851C303.912 29.8197 304.244 30.0805 304.643 30.2675C305.046 30.4495 305.516 30.5406 306.052 30.5406ZM312.614 31.9946V21.366H314.401L319.353 28.9241V21.366H321.147V31.9946H319.353L314.401 24.4365V31.9946H312.614Z" fill="#0D0D0D"/>
<defs>
<linearGradient id="paint0_linear_92_517" x1="8.93594" y1="6.39688" x2="34.0461" y2="45.8584" gradientUnits="userSpaceOnUse">
<stop stop-color="#FFF50B"/>
<stop offset="1" stop-color="#EBFD21"/>
</linearGradient>
<linearGradient id="paint1_linear_92_517" x1="0.964774" y1="5.11752" x2="47.7675" y2="6.81267" gradientUnits="userSpaceOnUse">
<stop stop-color="#1238FF"/>
<stop offset="1" stop-color="#7635FF"/>
</linearGradient>
<linearGradient id="paint2_linear_92_517" x1="0" y1="0" x2="47.2835" y2="1.93324" gradientUnits="userSpaceOnUse">
<stop stop-color="#0047FF"/>
<stop offset="1" stop-color="#AC42FF"/>
</linearGradient>
<linearGradient id="paint3_linear_92_517" x1="236.723" y1="17.4653" x2="328.684" y2="33.6362" gradientUnits="userSpaceOnUse">
<stop stop-color="#1238FF"/>
<stop offset="1" stop-color="#7635FF"/>
</linearGradient>
<linearGradient id="paint4_linear_92_517" x1="234.771" y1="15.333" x2="326.951" y2="33.6312" gradientUnits="userSpaceOnUse">
<stop stop-color="#0047FF"/>
<stop offset="1" stop-color="#AC42FF"/>
</linearGradient>
</defs>
</svg>
