<svg width="300" height="54" viewBox="0 0 300 54" fill="none" xmlns="http://www.w3.org/2000/svg">
<g clip-path="url(#clip0_85_1085)">
<path d="M60.2362 37.5074V15.269H67.276C69.0398 15.269 70.6025 15.5161 71.964 16.0103C73.3256 16.4942 74.4757 17.2097 75.4142 18.1569C76.3529 19.1041 77.0647 20.2675 77.5494 21.6471C78.0342 23.0268 78.2766 24.6071 78.2766 26.3883C78.2766 28.1693 78.0342 29.7498 77.5494 31.1294C77.0647 32.509 76.3529 33.6723 75.4142 34.6195C74.4757 35.5667 73.3256 36.2874 71.964 36.7816C70.6025 37.2655 69.0398 37.5074 67.276 37.5074H60.2362ZM63.9959 34.0172H66.8892C71.8608 34.0172 74.3467 31.4742 74.3467 26.3883C74.3467 21.3022 71.8608 18.7592 66.8892 18.7592H63.9959V34.0172Z" fill="white"/>
<path d="M91.3558 37.9707C89.6847 37.9707 88.1892 37.6927 86.8689 37.1367C85.5589 36.5705 84.4449 35.7829 83.5269 34.7739C82.6089 33.7547 81.9075 32.5347 81.4227 31.1139C80.9379 29.693 80.6956 28.1178 80.6956 26.3882C80.6956 24.6586 80.9379 23.0833 81.4227 21.6625C81.9075 20.2417 82.6089 19.0269 83.5269 18.0179C84.4449 16.9987 85.5589 16.211 86.8689 15.655C88.1892 15.0889 89.6847 14.8057 91.3558 14.8057C93.0267 14.8057 94.5224 15.0889 95.8426 15.655C97.1629 16.211 98.2821 16.9987 99.2 18.0179C100.118 19.0269 100.819 20.2417 101.304 21.6625C101.789 23.0833 102.031 24.6586 102.031 26.3882C102.031 28.1178 101.789 29.693 101.304 31.1139C100.819 32.5347 100.118 33.7547 99.2 34.7739C98.2821 35.7829 97.1629 36.5705 95.8426 37.1367C94.5224 37.6927 93.0267 37.9707 91.3558 37.9707ZM91.3558 34.4651C92.48 34.4651 93.4599 34.2746 94.2954 33.8936C95.1412 33.5024 95.8426 32.9567 96.3996 32.2567C96.9669 31.5463 97.3898 30.6969 97.6683 29.7085C97.9468 28.7098 98.0861 27.603 98.0861 26.3882C98.0861 25.1734 97.9468 24.0716 97.6683 23.0833C97.3898 22.0847 96.9669 21.2353 96.3996 20.5352C95.8426 19.8248 95.1412 19.2791 94.2954 18.8981C93.4599 18.5069 92.48 18.3113 91.3558 18.3113C90.2314 18.3113 89.2515 18.5069 88.4161 18.8981C87.5805 19.2791 86.8843 19.8248 86.3273 20.5352C85.7703 21.2353 85.3474 22.0847 85.0587 23.0833C84.7801 24.0716 84.6409 25.1734 84.6409 26.3882C84.6409 27.603 84.7801 28.7098 85.0587 29.7085C85.3371 30.6969 85.7548 31.5463 86.3119 32.2567C86.8689 32.9567 87.565 33.5024 88.4006 33.8936C89.2464 34.2746 90.2314 34.4651 91.3558 34.4651Z" fill="white"/>
<path d="M113.466 37.9707C112.125 37.9707 110.903 37.7751 109.799 37.3839C108.706 36.9823 107.762 36.3903 106.968 35.6079C106.183 34.8255 105.575 33.8525 105.142 32.6891C104.709 31.5155 104.492 30.1615 104.492 28.6275V15.269H108.236V28.4731C108.236 30.491 108.665 31.9942 109.521 32.9825C110.376 33.9709 111.692 34.4651 113.466 34.4651C115.25 34.4651 116.566 33.9709 117.411 32.9825C118.267 31.9942 118.696 30.491 118.696 28.4731V15.269H122.44V28.6275C122.44 30.1615 122.223 31.5155 121.79 32.6891C121.357 33.8525 120.748 34.8255 119.964 35.6079C119.18 36.3903 118.236 36.9823 117.133 37.3839C116.029 37.7751 114.807 37.9707 113.466 37.9707Z" fill="white"/>
<path d="M133.339 37.5074H124.752V15.269H133.107C134.138 15.269 135.103 15.3925 136 15.6397C136.908 15.8764 137.692 16.2368 138.352 16.7207C139.023 17.2045 139.548 17.812 139.93 18.543C140.311 19.274 140.502 20.1285 140.502 21.1065C140.502 21.8272 140.404 22.4656 140.208 23.0216C140.012 23.5673 139.76 24.0408 139.451 24.4424C139.141 24.8439 138.796 25.1682 138.413 25.4153C138.032 25.6624 137.661 25.8426 137.3 25.9559C137.743 26.0382 138.197 26.2081 138.662 26.4654C139.126 26.7229 139.548 27.078 139.93 27.531C140.311 27.9738 140.622 28.5091 140.859 29.1372C141.106 29.7651 141.23 30.491 141.23 31.3146C141.23 32.3957 141.024 33.3275 140.61 34.1099C140.198 34.8923 139.631 35.5359 138.909 36.0404C138.197 36.5448 137.362 36.9155 136.402 37.1522C135.443 37.389 134.422 37.5074 133.339 37.5074ZM133.185 18.7592H128.496V24.3343H133.339C133.813 24.3343 134.257 24.2879 134.669 24.1952C135.083 24.1026 135.438 23.9482 135.737 23.732C136.046 23.5055 136.289 23.212 136.464 22.8517C136.639 22.4913 136.728 22.0486 136.728 21.5236C136.728 20.9984 136.634 20.5609 136.448 20.2109C136.273 19.8505 136.026 19.5623 135.706 19.346C135.397 19.1298 135.026 18.9806 134.592 18.8982C134.159 18.8055 133.69 18.7592 133.185 18.7592ZM133.339 34.0172C133.886 34.0172 134.406 33.9761 134.902 33.8936C135.397 33.8113 135.835 33.6569 136.217 33.4304C136.608 33.1936 136.919 32.8744 137.145 32.4729C137.372 32.0611 137.486 31.5308 137.486 30.8822C137.486 30.2439 137.372 29.724 137.145 29.3224C136.919 28.921 136.613 28.6069 136.232 28.3805C135.861 28.1436 135.433 27.9841 134.948 27.9016C134.463 27.809 133.968 27.7627 133.463 27.7627H128.496V34.0172H133.339Z" fill="white"/>
<path d="M143.56 37.5074V15.269H147.304V34.0172H157.144V37.5074H143.56Z" fill="white"/>
<path d="M159.626 37.5074V15.269H174.045V18.7592H163.37V24.2416H172.189V27.7318H163.37V34.0172H174.045V37.5074H159.626Z" fill="white"/>
<path d="M183.002 37.5074V18.7592H176.365V15.269H193.368V18.7592H186.762V37.5074H183.002Z" fill="white"/>
<path d="M203.713 37.9707C202.043 37.9707 200.547 37.6927 199.227 37.1367C197.916 36.5705 196.803 35.7829 195.885 34.7739C194.967 33.7547 194.266 32.5347 193.78 31.1139C193.296 29.693 193.054 28.1178 193.054 26.3882C193.054 24.6586 193.296 23.0833 193.78 21.6625C194.266 20.2417 194.967 19.0269 195.885 18.0179C196.803 16.9987 197.916 16.211 199.227 15.655C200.547 15.0889 202.043 14.8057 203.713 14.8057C205.385 14.8057 206.88 15.0889 208.201 15.655C209.521 16.211 210.64 16.9987 211.558 18.0179C212.476 19.0269 213.177 20.2417 213.662 21.6625C214.147 23.0833 214.39 24.6586 214.39 26.3882C214.39 28.1178 214.147 29.693 213.662 31.1139C213.177 32.5347 212.476 33.7547 211.558 34.7739C210.64 35.7829 209.521 36.5705 208.201 37.1367C206.88 37.6927 205.385 37.9707 203.713 37.9707ZM203.713 34.4651C204.838 34.4651 205.819 34.2746 206.654 33.8936C207.499 33.5024 208.201 32.9567 208.758 32.2567C209.325 31.5463 209.747 30.6969 210.027 29.7085C210.305 28.7098 210.444 27.603 210.444 26.3882C210.444 25.1734 210.305 24.0716 210.027 23.0833C209.747 22.0847 209.325 21.2353 208.758 20.5352C208.201 19.8248 207.499 19.2791 206.654 18.8981C205.819 18.5069 204.838 18.3113 203.713 18.3113C202.59 18.3113 201.609 18.5069 200.774 18.8981C199.939 19.2791 199.242 19.8248 198.686 20.5352C198.129 21.2353 197.705 22.0847 197.416 23.0833C197.138 24.0716 196.999 25.1734 196.999 26.3882C196.999 27.603 197.138 28.7098 197.416 29.7085C197.695 30.6969 198.113 31.5463 198.67 32.2567C199.227 32.9567 199.924 33.5024 200.759 33.8936C201.604 34.2746 202.59 34.4651 203.713 34.4651Z" fill="white"/>
<path d="M216.696 37.5074V15.269H225.499C226.82 15.269 227.969 15.4337 228.95 15.7631C229.939 16.0926 230.76 16.5714 231.409 17.1994C232.069 17.8171 232.565 18.5738 232.895 19.4696C233.225 20.3653 233.39 21.3795 233.39 22.5119C233.39 23.6444 233.225 24.6586 232.895 25.5543C232.565 26.45 232.069 27.2067 231.409 27.8245C230.75 28.4421 229.924 28.9158 228.934 29.2453C227.954 29.5747 226.809 29.7394 225.499 29.7394H220.456V37.5074H216.696ZM220.456 26.2647H225.468C226.82 26.2647 227.851 25.9455 228.563 25.3072C229.274 24.6586 229.63 23.7268 229.63 22.5119C229.63 21.2971 229.274 20.3705 228.563 19.7321C227.851 19.0835 226.82 18.7592 225.468 18.7592H220.456V26.2647Z" fill="white"/>
<path d="M41.3815 15.5866C41.7673 15.8196 42.0033 16.2385 42.0033 16.6907V36.4526C42.0033 36.9047 41.7673 37.3237 41.3815 37.5567L23.9965 48.0548C23.5896 48.3005 23.0808 48.3005 22.674 48.0548L5.99634 37.984C5.58378 37.7349 5.48128 37.1795 5.77754 36.7985L10.5623 30.6449C11.0542 30.0123 11.9433 29.857 12.6189 30.2856L17.9175 33.6479C19.2664 34.5039 21.0411 34.196 22.0263 32.935L30.794 21.7124C31.2844 21.0844 32.1669 20.9288 32.8407 21.351L36.7127 23.7767C37.0332 23.9775 37.4486 23.7461 37.4486 23.3668V19.1585C37.4486 18.8806 37.3059 18.6224 37.0711 18.4753L32.9406 15.8876C31.5927 15.0431 29.8278 15.3545 28.847 16.6101L20.0894 27.82C19.5968 28.4505 18.7094 28.6044 18.0348 28.1765L12.7309 24.8106C11.3797 23.9533 9.60158 24.2638 8.61765 25.5292L1.12253 35.1685C0.395112 36.104 -0.0856332 37.2787 0.221532 38.4247C0.523295 39.5506 1.15679 40.5325 2.2629 41.2003L20.931 52.4733C22.4104 53.3666 24.2599 53.3666 25.7394 52.4733L44.4075 41.2003C45.8114 40.3525 46.6703 38.8271 46.6703 37.1812V15.9621C46.6703 14.3162 45.8114 12.7908 44.4075 11.9429L25.7394 0.67003C24.2599 -0.223343 22.4104 -0.223343 20.931 0.67003L2.2629 11.9429C0.85885 12.7908 0 14.3162 0 15.9621V27.7859C0 28.2457 0.579309 28.4455 0.860716 28.0828L4.3285 23.6123C4.5479 23.3295 4.66703 22.9813 4.66703 22.6228V16.6907C4.66703 16.2385 4.90301 15.8196 5.28883 15.5866L22.674 5.08844C23.0808 4.84275 23.5896 4.84275 23.9965 5.08844L41.3815 15.5866Z" fill="url(#paint0_linear_85_1085)"/>
<path d="M294.928 15.5229H245.373C242.623 15.5229 240.394 17.7684 240.394 20.5383V32.0242C240.394 34.7941 242.623 37.0396 245.373 37.0396H294.928C297.677 37.0396 299.906 34.7941 299.906 32.0242V20.5383C299.906 17.7684 297.677 15.5229 294.928 15.5229Z" fill="url(#paint1_linear_85_1085)"/>
<path d="M245.423 32.5119V21.6788H247.23L252.241 29.3824V21.6788H254.057V32.5119H252.241L247.23 24.8084V32.5119H245.423ZM260.693 32.7376C259.886 32.7376 259.164 32.6022 258.527 32.3314C257.894 32.0555 257.357 31.6719 256.913 31.1804C256.47 30.6838 256.132 30.0895 255.898 29.3974C255.664 28.7053 255.546 27.9379 255.546 27.0954C255.546 26.2528 255.664 25.4855 255.898 24.7933C256.132 24.1012 256.47 23.5094 256.913 23.0179C257.357 22.5214 257.894 22.1377 258.527 21.8668C259.164 21.591 259.886 21.4531 260.693 21.4531C261.499 21.4531 262.221 21.591 262.858 21.8668C263.496 22.1377 264.036 22.5214 264.478 23.0179C264.922 23.5094 265.261 24.1012 265.495 24.7933C265.729 25.4855 265.845 26.2528 265.845 27.0954C265.845 27.9379 265.729 28.7053 265.495 29.3974C265.261 30.0895 264.922 30.6838 264.478 31.1804C264.036 31.6719 263.496 32.0555 262.858 32.3314C262.221 32.6022 261.499 32.7376 260.693 32.7376ZM260.693 31.0299C261.235 31.0299 261.708 30.9371 262.111 30.7515C262.52 30.561 262.858 30.2951 263.127 29.9541C263.401 29.6081 263.605 29.1942 263.739 28.7128C263.874 28.2263 263.941 27.6872 263.941 27.0954C263.941 26.5036 263.874 25.9669 263.739 25.4855C263.605 24.999 263.401 24.5851 263.127 24.2441C262.858 23.8981 262.52 23.6322 262.111 23.4467C261.708 23.2561 261.235 23.1608 260.693 23.1608C260.15 23.1608 259.676 23.2561 259.273 23.4467C258.87 23.6322 258.534 23.8981 258.265 24.2441C257.996 24.5851 257.792 24.999 257.653 25.4855C257.519 25.9669 257.451 26.5036 257.451 27.0954C257.451 27.6872 257.519 28.2263 257.653 28.7128C257.787 29.1942 257.989 29.6081 258.258 29.9541C258.527 30.2951 258.863 30.561 259.266 30.7515C259.674 30.9371 260.15 31.0299 260.693 31.0299ZM267.332 32.5119V21.6788H270.73C271.581 21.6788 272.336 21.7991 272.993 22.0399C273.651 22.2756 274.205 22.6242 274.659 23.0856C275.111 23.547 275.456 24.1138 275.69 24.7858C275.924 25.4578 276.04 26.2277 276.04 27.0954C276.04 27.963 275.924 28.7328 275.69 29.4049C275.456 30.077 275.111 30.6437 274.659 31.1051C274.205 31.5665 273.651 31.9176 272.993 32.1583C272.336 32.394 271.581 32.5119 270.73 32.5119H267.332ZM269.146 30.8117H270.543C272.943 30.8117 274.143 29.573 274.143 27.0954C274.143 24.6177 272.943 23.379 270.543 23.379H269.146V30.8117ZM277.805 32.5119V21.6788H284.766V23.379H279.612V26.0497H283.87V27.7498H279.612V30.8117H284.766V32.5119H277.805ZM290.436 32.7376C289.838 32.7376 289.286 32.6574 288.778 32.4969C288.27 32.3364 287.822 32.1082 287.434 31.8123C287.051 31.5114 286.734 31.1503 286.486 30.729C286.236 30.3077 286.069 29.8337 285.985 29.3071L287.852 29.0212C288.011 29.6883 288.318 30.1923 288.77 30.5333C289.229 30.8694 289.822 31.0374 290.549 31.0374C290.872 31.0374 291.168 30.9998 291.437 30.9246C291.71 30.8443 291.947 30.734 292.146 30.5936C292.345 30.4532 292.5 30.2876 292.609 30.0971C292.719 29.9014 292.773 29.6883 292.773 29.4576C292.773 28.8758 292.375 28.4671 291.578 28.2314L288.8 27.4038C287.202 26.9274 286.403 25.997 286.403 24.6127C286.403 24.1413 286.498 23.7125 286.687 23.3263C286.881 22.9401 287.15 22.6091 287.494 22.3333C287.837 22.0574 288.245 21.8443 288.719 21.6938C289.196 21.5434 289.719 21.4682 290.287 21.4682C290.85 21.4682 291.365 21.5384 291.833 21.6788C292.305 21.8192 292.724 22.0248 293.088 22.2956C293.456 22.5665 293.765 22.8975 294.013 23.2887C294.267 23.6799 294.454 24.1288 294.573 24.6353L292.639 24.9738C292.525 24.3971 292.259 23.9507 291.84 23.6347C291.422 23.3188 290.894 23.1608 290.257 23.1608C289.958 23.1608 289.687 23.196 289.442 23.2662C289.199 23.3314 288.992 23.4266 288.823 23.5521C288.654 23.6724 288.522 23.8178 288.427 23.9883C288.337 24.1539 288.293 24.3369 288.293 24.5376C288.293 24.8435 288.418 25.0993 288.666 25.3049C288.916 25.5105 289.316 25.6911 289.868 25.8465L291.773 26.3806C292.748 26.6515 293.473 27.0302 293.946 27.5166C294.42 28.0031 294.656 28.6175 294.656 29.3598C294.656 29.8613 294.554 30.3202 294.35 30.7365C294.145 31.1478 293.859 31.5039 293.491 31.8047C293.123 32.1007 292.676 32.3314 292.154 32.4969C291.636 32.6574 291.063 32.7376 290.436 32.7376Z" fill="#0D0D0D"/>
</g>
<defs>
<linearGradient id="paint0_linear_85_1085" x1="0.994612" y1="5.31435" x2="49.2458" y2="7.04928" gradientUnits="userSpaceOnUse">
<stop stop-color="#10A9FF"/>
<stop offset="1" stop-color="#1DFFF1"/>
</linearGradient>
<linearGradient id="paint1_linear_85_1085" x1="241.662" y1="17.6745" x2="302.491" y2="24.563" gradientUnits="userSpaceOnUse">
<stop stop-color="#10A9FF"/>
<stop offset="1" stop-color="#1DFFF1"/>
</linearGradient>
<clipPath id="clip0_85_1085">
<rect width="300" height="54" fill="white"/>
</clipPath>
</defs>
</svg>
